<svg width="2000px" height="724px"
 viewBox="0.00 0.00 3060.48 1108.04" xmlns="http://www.w3.org/2000/svg" xmlns:xlink="http://www.w3.org/1999/xlink">
<g id="graph0" class="graph" transform="scale(1.0 1.0) rotate(0) translate(4 1104.04)">
<title>ContextMapGraph</title>
<polygon fill="white" stroke="transparent" points="-4,4 -4,-1104.04 3056.48,-1104.04 3056.48,4 -4,4"/>
<!-- CapturaInformacionCatastralYPlanosPullContext -->
<g id="node1" class="node">
<title>CapturaInformacionCatastralYPlanosPullContext</title>
<polygon fill="none" stroke="black" stroke-width="2" points="1309.62,-1012.9 1329.33,-1013.34 1348.78,-1013.89 1367.89,-1014.56 1386.57,-1015.34 1404.76,-1016.23 1422.38,-1017.23 1439.37,-1018.34 1455.65,-1019.55 1471.18,-1020.85 1485.88,-1022.25 1499.71,-1023.74 1512.62,-1025.31 1524.58,-1026.97 1535.54,-1028.71 1545.48,-1030.51 1554.37,-1032.39 1562.19,-1034.32 1568.94,-1036.32 1574.59,-1038.36 1579.16,-1040.46 1582.64,-1042.59 1585.05,-1044.76 1586.39,-1046.96 1586.7,-1049.18 1585.98,-1051.42 1584.27,-1053.67 1581.6,-1055.93 1578,-1058.19 1573.51,-1060.44 1568.17,-1062.68 1562.02,-1064.9 1555.11,-1067.1 1547.49,-1069.27 1539.19,-1071.41 1530.26,-1073.5 1520.76,-1075.55 1510.73,-1077.55 1500.21,-1079.49 1489.25,-1081.37 1477.89,-1083.18 1466.18,-1084.92 1454.16,-1086.59 1441.86,-1088.17 1429.32,-1089.67 1416.58,-1091.08 1403.67,-1092.4 1390.62,-1093.61 1377.45,-1094.73 1364.19,-1095.75 1350.86,-1096.66 1337.49,-1097.46 1324.09,-1098.15 1310.67,-1098.72 1297.26,-1099.18 1283.86,-1099.52 1270.49,-1099.75 1257.15,-1099.86 1243.85,-1099.84 1230.61,-1099.71 1217.44,-1099.46 1204.33,-1099.09 1191.3,-1098.59 1178.37,-1097.99 1165.53,-1097.26 1152.8,-1096.43 1140.2,-1095.48 1127.73,-1094.42 1115.41,-1093.25 1103.27,-1091.98 1091.31,-1090.61 1079.57,-1089.14 1068.06,-1087.58 1056.81,-1085.93 1045.84,-1084.19 1035.2,-1082.38 1024.91,-1080.49 1015,-1078.53 1005.51,-1076.51 996.47,-1074.43 987.94,-1072.3 979.94,-1070.12 972.51,-1067.9 965.71,-1065.65 959.56,-1063.37 954.11,-1061.07 949.39,-1058.75 945.46,-1056.42 942.35,-1054.1 940.08,-1051.78 938.71,-1049.47 938.25,-1047.18 938.74,-1044.92 940.19,-1042.69 942.65,-1040.49 946.11,-1038.34 950.59,-1036.24 956.11,-1034.2 962.66,-1032.22 970.24,-1030.3 978.85,-1028.46 988.48,-1026.7 999.1,-1025.02 1010.69,-1023.43 1023.22,-1021.94 1036.67,-1020.53 1050.99,-1019.23 1066.13,-1018.03 1082.04,-1016.94 1098.67,-1015.96 1115.97,-1015.09 1133.86,-1014.34 1152.28,-1013.7 1171.16,-1013.18 1190.42,-1012.78 1209.99,-1012.5 1229.78,-1012.34 1249.73,-1012.3 1269.74,-1012.38 1289.73,-1012.58 1309.62,-1012.9"/>
<text text-anchor="middle" x="1258.48" y="-1052.33" font-family="sans-serif" font-size="16.00">CapturaInformacionCatastralYPlanosPullContext</text>
</g>
<!-- CapturaInformacionCatastralYPlanosPushContext -->
<g id="node2" class="node">
<title>CapturaInformacionCatastralYPlanosPushContext</title>
<polygon fill="none" stroke="black" stroke-width="2" points="571.68,-884.13 585.92,-886.19 599.44,-888.33 612.19,-890.53 624.11,-892.79 635.15,-895.09 645.26,-897.43 654.41,-899.79 662.55,-902.18 669.64,-904.58 675.66,-906.99 680.58,-909.39 684.38,-911.78 687.05,-914.15 688.57,-916.5 688.95,-918.82 688.18,-921.1 686.26,-923.34 683.22,-925.53 679.07,-927.67 673.83,-929.75 667.53,-931.77 660.19,-933.72 651.87,-935.6 642.58,-937.42 632.39,-939.16 621.33,-940.82 609.47,-942.4 596.84,-943.9 583.51,-945.32 569.54,-946.66 554.98,-947.91 539.9,-949.08 524.36,-950.16 508.42,-951.16 492.13,-952.06 475.58,-952.88 458.81,-953.62 441.88,-954.26 424.86,-954.82 407.81,-955.29 390.77,-955.67 373.8,-955.96 356.95,-956.17 340.28,-956.28 323.82,-956.3 307.62,-956.24 291.72,-956.08 276.16,-955.84 260.97,-955.5 246.18,-955.07 231.81,-954.55 217.9,-953.94 204.47,-953.23 191.53,-952.43 179.11,-951.54 167.21,-950.56 155.85,-949.48 145.04,-948.32 134.79,-947.06 125.1,-945.71 115.98,-944.27 107.43,-942.74 99.46,-941.12 92.07,-939.43 85.26,-937.64 79.03,-935.78 73.38,-933.85 68.31,-931.84 63.83,-929.76 59.94,-927.61 56.64,-925.41 53.92,-923.15 51.8,-920.85 50.28,-918.5 49.36,-916.11 49.04,-913.7 49.34,-911.26 50.25,-908.81 51.79,-906.35 53.96,-903.89 56.76,-901.45 60.21,-899.01 64.31,-896.61 69.06,-894.24 74.48,-891.92 80.56,-889.64 87.31,-887.43 94.74,-885.29 102.84,-883.23 111.61,-881.25 121.05,-879.37 131.16,-877.59 141.93,-875.93 153.34,-874.37 165.39,-872.95 178.06,-871.65 191.34,-870.49 205.19,-869.46 219.59,-868.58 234.52,-867.85 249.94,-867.28 265.83,-866.85 282.12,-866.58 298.8,-866.47 315.8,-866.51 333.09,-866.71 350.6,-867.06 368.29,-867.57 386.1,-868.23 403.97,-869.03 421.83,-869.99 439.62,-871.08 457.29,-872.3 474.75,-873.65 491.96,-875.13 508.83,-876.72 525.3,-878.43 541.31,-880.24 556.8,-882.14 571.68,-884.13"/>
<text text-anchor="middle" x="344.48" y="-910.64" font-family="sans-serif" font-size="16.00">CapturaInformacionCatastralYPlanosPushContext</text>
</g>
<!-- CapturaInformacionCatastralYPlanosPullContext&#45;&gt;CapturaInformacionCatastralYPlanosPushContext -->
<g id="edge1" class="edge">
<title>CapturaInformacionCatastralYPlanosPullContext&#45;&gt;CapturaInformacionCatastralYPlanosPushContext</title>
<path fill="none" stroke="black" stroke-width="2" d="M948.42,-1037.24C843.1,-1028.08 725.13,-1014.44 618.48,-994.21 565.6,-984.18 508.2,-968.46 459.66,-953.69"/>
<text text-anchor="middle" x="660.48" y="-984.61" font-family="sans-serif" font-size="12.00">Shared Kernel</text>
</g>
<!-- ConsolidacionYEnriquecimientoContext -->
<g id="node3" class="node">
<title>ConsolidacionYEnriquecimientoContext</title>
<polygon fill="none" stroke="black" stroke-width="2" points="1412.89,-886.54 1423.39,-884.31 1434.38,-882.17 1445.8,-880.14 1457.62,-878.21 1469.79,-876.4 1482.26,-874.71 1495,-873.15 1507.96,-871.73 1521.1,-870.46 1534.36,-869.33 1547.72,-868.36 1561.14,-867.54 1574.56,-866.89 1587.96,-866.39 1601.29,-866.06 1614.53,-865.89 1627.63,-865.89 1640.57,-866.04 1653.32,-866.36 1665.85,-866.84 1678.12,-867.47 1690.13,-868.25 1701.83,-869.18 1713.22,-870.25 1724.27,-871.46 1734.96,-872.8 1745.28,-874.25 1755.21,-875.82 1764.74,-877.5 1773.85,-879.28 1782.53,-881.16 1790.78,-883.11 1798.57,-885.14 1805.9,-887.23 1812.77,-889.38 1819.16,-891.59 1825.07,-893.83 1830.49,-896.1 1835.41,-898.4 1839.82,-900.71 1843.72,-903.03 1847.1,-905.35 1849.96,-907.67 1852.28,-909.97 1854.07,-912.25 1855.31,-914.51 1856.01,-916.74 1856.14,-918.93 1855.72,-921.08 1854.72,-923.19 1853.16,-925.24 1851.01,-927.25 1848.29,-929.2 1844.98,-931.1 1841.09,-932.93 1836.61,-934.7 1831.54,-936.41 1825.89,-938.05 1819.65,-939.63 1812.83,-941.14 1805.44,-942.58 1797.48,-943.95 1788.96,-945.25 1779.9,-946.48 1770.31,-947.64 1760.19,-948.73 1749.58,-949.75 1738.5,-950.7 1726.95,-951.57 1714.98,-952.37 1702.6,-953.1 1689.85,-953.74 1676.76,-954.32 1663.36,-954.81 1649.69,-955.23 1635.8,-955.56 1621.71,-955.82 1607.47,-955.99 1593.14,-956.07 1578.74,-956.06 1564.33,-955.97 1549.97,-955.79 1535.69,-955.51 1521.54,-955.13 1507.59,-954.66 1493.87,-954.09 1480.44,-953.42 1467.34,-952.65 1454.64,-951.77 1442.36,-950.79 1430.57,-949.7 1419.3,-948.52 1408.6,-947.22 1398.51,-945.82 1389.07,-944.32 1380.31,-942.72 1372.27,-941.01 1364.99,-939.21 1358.48,-937.32 1352.77,-935.33 1347.89,-933.26 1343.84,-931.11 1340.65,-928.88 1338.33,-926.57 1336.87,-924.21 1336.29,-921.78 1336.58,-919.3 1337.74,-916.79 1339.76,-914.23 1342.62,-911.65 1346.32,-909.06 1350.82,-906.45 1356.12,-903.85 1362.18,-901.26 1368.98,-898.7 1376.49,-896.16 1384.67,-893.67 1393.49,-891.22 1402.91,-888.84 1412.89,-886.54"/>
<text text-anchor="middle" x="1610.48" y="-910.64" font-family="sans-serif" font-size="16.00">ConsolidacionYEnriquecimientoContext</text>
</g>
<!-- CapturaInformacionCatastralYPlanosPullContext&#45;&gt;ConsolidacionYEnriquecimientoContext -->
<g id="edge2" class="edge">
<title>CapturaInformacionCatastralYPlanosPullContext&#45;&gt;ConsolidacionYEnriquecimientoContext</title>
<path fill="none" stroke="black" stroke-width="2" d="M1361.72,-1014.16C1408.88,-995.44 1464.51,-973.37 1511.19,-954.84"/>
<text text-anchor="middle" x="1509.98" y="-984.61" font-family="sans-serif" font-size="12.00"> &#160;&#160;&#160;&#160;&#160;&#160;&#160;&#160;&#160;&#160;&#160;&#160;&#160;&#160;&#160;&#160;&#160;&#160;&#160;&#160;&#160;&#160;&#160;&#160;&#160;&#160;&#160;&#160;&#160;&#160;&#160;&#160;&#160;&#160;&#160;&#160;&#160;&#160;&#160;</text>
<polygon fill="white" stroke="transparent" points="1504.19,-945.84 1504.19,-962.84 1518.19,-962.84 1518.19,-945.84 1504.19,-945.84"/>
<text text-anchor="start" x="1506.19" y="-951.24" font-family="sans-serif" font-size="12.00">D</text>
<polygon fill="white" stroke="transparent" points="1354.72,-1005.16 1354.72,-1022.16 1368.72,-1022.16 1368.72,-1005.16 1354.72,-1005.16"/>
<text text-anchor="start" x="1356.72" y="-1010.56" font-family="sans-serif" font-size="12.00">U</text>
</g>
<!-- ValidacionInformacionConsolidadaContext -->
<g id="node4" class="node">
<title>ValidacionInformacionConsolidadaContext</title>
<polygon fill="none" stroke="black" stroke-width="2" points="1826.78,-729.39 1844.49,-729.73 1861.99,-730.18 1879.21,-730.76 1896.07,-731.44 1912.52,-732.24 1928.48,-733.15 1943.9,-734.17 1958.71,-735.29 1972.86,-736.52 1986.3,-737.84 1998.98,-739.26 2010.86,-740.77 2021.91,-742.36 2032.08,-744.04 2041.35,-745.79 2049.7,-747.62 2057.11,-749.51 2063.57,-751.47 2069.07,-753.48 2073.6,-755.55 2077.18,-757.66 2079.8,-759.82 2081.48,-762 2082.23,-764.22 2082.08,-766.46 2081.04,-768.72 2079.14,-770.98 2076.42,-773.25 2072.89,-775.53 2068.61,-777.79 2063.6,-780.04 2057.91,-782.27 2051.56,-784.47 2044.61,-786.65 2037.09,-788.78 2029.05,-790.88 2020.51,-792.92 2011.54,-794.91 2002.15,-796.84 1992.4,-798.71 1982.32,-800.5 1971.93,-802.23 1961.29,-803.87 1950.41,-805.43 1939.34,-806.9 1928.09,-808.28 1916.69,-809.56 1905.17,-810.74 1893.54,-811.82 1881.83,-812.79 1870.06,-813.66 1858.23,-814.41 1846.37,-815.06 1834.48,-815.58 1822.58,-815.99 1810.68,-816.28 1798.79,-816.46 1786.91,-816.51 1775.05,-816.44 1763.22,-816.26 1751.43,-815.95 1739.68,-815.53 1727.99,-814.99 1716.36,-814.33 1704.81,-813.55 1693.34,-812.67 1681.97,-811.67 1670.71,-810.57 1659.59,-809.36 1648.61,-808.06 1637.79,-806.65 1627.17,-805.15 1616.76,-803.56 1606.59,-801.88 1596.68,-800.12 1587.07,-798.29 1577.79,-796.38 1568.88,-794.41 1560.35,-792.38 1552.26,-790.3 1544.64,-788.16 1537.53,-785.98 1530.95,-783.77 1524.96,-781.52 1519.59,-779.25 1514.88,-776.96 1510.86,-774.66 1507.57,-772.36 1505.05,-770.05 1503.32,-767.76 1502.41,-765.47 1502.35,-763.21 1503.17,-760.97 1504.89,-758.77 1507.51,-756.61 1511.06,-754.49 1515.55,-752.42 1520.97,-750.41 1527.33,-748.46 1534.62,-746.58 1542.84,-744.78 1551.96,-743.05 1561.98,-741.4 1572.85,-739.84 1584.56,-738.38 1597.07,-737.01 1610.34,-735.73 1624.32,-734.57 1638.97,-733.5 1654.23,-732.55 1670.05,-731.71 1686.37,-730.98 1703.13,-730.36 1720.25,-729.87 1737.68,-729.49 1755.33,-729.23 1773.14,-729.09 1791.03,-729.07 1808.94,-729.17 1826.78,-729.39"/>
<text text-anchor="middle" x="1790.48" y="-769" font-family="sans-serif" font-size="16.00">ValidacionInformacionConsolidadaContext</text>
</g>
<!-- ConsolidacionYEnriquecimientoContext&#45;&gt;ValidacionInformacionConsolidadaContext -->
<g id="edge3" class="edge">
<title>ConsolidacionYEnriquecimientoContext&#45;&gt;ValidacionInformacionConsolidadaContext</title>
<path fill="none" stroke="black" stroke-width="2" d="M1670.42,-866.94C1691.79,-850.36 1715.72,-831.79 1736.56,-815.63"/>
<text text-anchor="middle" x="1785.98" y="-838.06" font-family="sans-serif" font-size="12.00"> &#160;&#160;&#160;&#160;&#160;&#160;&#160;&#160;&#160;&#160;&#160;&#160;&#160;&#160;&#160;&#160;&#160;&#160;&#160;&#160;&#160;&#160;&#160;&#160;&#160;&#160;&#160;&#160;&#160;&#160;&#160;&#160;&#160;&#160;&#160;&#160;&#160;&#160;&#160;</text>
<polygon fill="white" stroke="transparent" points="1729.56,-806.63 1729.56,-823.63 1743.56,-823.63 1743.56,-806.63 1729.56,-806.63"/>
<text text-anchor="start" x="1731.56" y="-812.03" font-family="sans-serif" font-size="12.00">D</text>
<polygon fill="white" stroke="transparent" points="1663.42,-857.94 1663.42,-874.94 1677.42,-874.94 1677.42,-857.94 1663.42,-857.94"/>
<text text-anchor="start" x="1665.42" y="-863.34" font-family="sans-serif" font-size="12.00">U</text>
</g>
<!-- CreacionIndiceConfiabilidadContext -->
<g id="node5" class="node">
<title>CreacionIndiceConfiabilidadContext</title>
<polygon fill="none" stroke="black" stroke-width="2" points="1599.76,-641.47 1595.97,-638.68 1592.84,-635.88 1590.39,-633.08 1588.62,-630.29 1587.54,-627.52 1587.18,-624.79 1587.52,-622.1 1588.58,-619.46 1590.35,-616.88 1592.84,-614.38 1596.05,-611.96 1599.95,-609.63 1604.55,-607.39 1609.84,-605.25 1615.79,-603.22 1622.39,-601.3 1629.63,-599.5 1637.48,-597.82 1645.91,-596.27 1654.9,-594.84 1664.43,-593.54 1674.45,-592.37 1684.94,-591.33 1695.86,-590.41 1707.18,-589.63 1718.86,-588.97 1730.86,-588.44 1743.14,-588.03 1755.66,-587.75 1768.37,-587.57 1781.25,-587.52 1794.24,-587.57 1807.3,-587.73 1820.4,-588 1833.48,-588.36 1846.51,-588.82 1859.44,-589.37 1872.24,-590 1884.87,-590.72 1897.29,-591.52 1909.45,-592.39 1921.34,-593.34 1932.9,-594.35 1944.12,-595.42 1954.96,-596.56 1965.38,-597.76 1975.37,-599.02 1984.89,-600.33 1993.93,-601.69 2002.47,-603.1 2010.47,-604.57 2017.94,-606.08 2024.84,-607.63 2031.18,-609.24 2036.93,-610.88 2042.08,-612.57 2046.64,-614.3 2050.59,-616.07 2053.93,-617.88 2056.66,-619.73 2058.78,-621.62 2060.29,-623.54 2061.19,-625.5 2061.48,-627.49 2061.17,-629.51 2060.28,-631.56 2058.79,-633.63 2056.73,-635.72 2054.1,-637.84 2050.92,-639.96 2047.19,-642.1 2042.93,-644.24 2038.15,-646.39 2032.87,-648.52 2027.09,-650.65 2020.84,-652.76 2014.13,-654.84 2006.98,-656.9 1999.4,-658.92 1991.41,-660.89 1983.02,-662.81 1974.27,-664.66 1965.16,-666.45 1955.71,-668.16 1945.95,-669.79 1935.89,-671.33 1925.56,-672.76 1914.98,-674.09 1904.16,-675.3 1893.14,-676.39 1881.93,-677.35 1870.56,-678.17 1859.06,-678.86 1847.44,-679.39 1835.73,-679.78 1823.97,-680 1812.18,-680.07 1800.38,-679.98 1788.6,-679.73 1776.88,-679.3 1765.24,-678.72 1753.71,-677.97 1742.32,-677.05 1731.11,-675.97 1720.09,-674.74 1709.31,-673.35 1698.8,-671.8 1688.58,-670.12 1678.69,-668.29 1669.15,-666.34 1660.01,-664.26 1651.28,-662.06 1642.99,-659.76 1635.18,-657.35 1627.88,-654.87 1621.1,-652.3 1614.87,-649.66 1609.23,-646.97 1604.18,-644.24 1599.76,-641.47"/>
<text text-anchor="middle" x="1829.48" y="-627.49" font-family="sans-serif" font-size="16.00">CreacionIndiceConfiabilidadContext</text>
</g>
<!-- ValidacionInformacionConsolidadaContext&#45;&gt;CreacionIndiceConfiabilidadContext -->
<g id="edge4" class="edge">
<title>ValidacionInformacionConsolidadaContext&#45;&gt;CreacionIndiceConfiabilidadContext</title>
<path fill="none" stroke="black" stroke-width="2" d="M1802.5,-728.8C1806.8,-713.43 1811.67,-696.02 1816.08,-680.25"/>
<text text-anchor="middle" x="1884.98" y="-701.33" font-family="sans-serif" font-size="12.00"> &#160;&#160;&#160;&#160;&#160;&#160;&#160;&#160;&#160;&#160;&#160;&#160;&#160;&#160;&#160;&#160;&#160;&#160;&#160;&#160;&#160;&#160;&#160;&#160;&#160;&#160;&#160;&#160;&#160;&#160;&#160;&#160;&#160;&#160;&#160;&#160;&#160;&#160;&#160;</text>
<polygon fill="white" stroke="transparent" points="1809.08,-671.25 1809.08,-688.25 1823.08,-688.25 1823.08,-671.25 1809.08,-671.25"/>
<text text-anchor="start" x="1811.08" y="-676.65" font-family="sans-serif" font-size="12.00">D</text>
<polygon fill="white" stroke="transparent" points="1795.5,-719.8 1795.5,-736.8 1809.5,-736.8 1809.5,-719.8 1795.5,-719.8"/>
<text text-anchor="start" x="1797.5" y="-725.2" font-family="sans-serif" font-size="12.00">U</text>
</g>
<!-- RecoleccionInformacionManualContext -->
<g id="node9" class="node">
<title>RecoleccionInformacionManualContext</title>
<polygon fill="none" stroke="black" stroke-width="2" points="1052.15,-596.83 1064.99,-595.02 1078.18,-593.31 1091.67,-591.71 1105.42,-590.24 1119.36,-588.89 1133.45,-587.68 1147.64,-586.6 1161.87,-585.67 1176.1,-584.88 1190.29,-584.25 1204.37,-583.76 1218.32,-583.44 1232.08,-583.27 1245.63,-583.26 1258.91,-583.41 1271.91,-583.72 1284.58,-584.18 1296.9,-584.8 1308.83,-585.56 1320.36,-586.48 1331.47,-587.54 1342.12,-588.73 1352.31,-590.06 1362.03,-591.52 1371.25,-593.1 1379.98,-594.79 1388.2,-596.59 1395.9,-598.49 1403.08,-600.48 1409.74,-602.56 1415.88,-604.7 1421.49,-606.92 1426.57,-609.19 1431.14,-611.51 1435.18,-613.87 1438.71,-616.26 1441.71,-618.67 1444.21,-621.1 1446.19,-623.53 1447.67,-625.96 1448.64,-628.38 1449.11,-630.79 1449.08,-633.17 1448.56,-635.51 1447.53,-637.82 1446.01,-640.08 1443.99,-642.3 1441.48,-644.46 1438.48,-646.56 1434.98,-648.59 1430.99,-650.56 1426.5,-652.45 1421.51,-654.27 1416.04,-656.02 1410.06,-657.68 1403.6,-659.26 1396.64,-660.76 1389.2,-662.17 1381.27,-663.5 1372.86,-664.74 1363.98,-665.9 1354.63,-666.96 1344.83,-667.94 1334.59,-668.82 1323.92,-669.62 1312.83,-670.34 1301.35,-670.96 1289.49,-671.49 1277.28,-671.94 1264.75,-672.3 1251.91,-672.57 1238.81,-672.76 1225.46,-672.85 1211.92,-672.86 1198.21,-672.79 1184.37,-672.62 1170.45,-672.37 1156.49,-672.03 1142.53,-671.6 1128.63,-671.08 1114.82,-670.48 1101.16,-669.78 1087.69,-669 1074.48,-668.13 1061.56,-667.17 1048.99,-666.12 1036.81,-664.98 1025.09,-663.75 1013.86,-662.44 1003.18,-661.04 993.09,-659.55 983.63,-657.98 974.85,-656.33 966.79,-654.6 959.47,-652.78 952.94,-650.9 947.23,-648.94 942.36,-646.91 938.35,-644.81 935.23,-642.66 933.01,-640.45 931.7,-638.18 931.3,-635.88 931.83,-633.53 933.28,-631.15 935.64,-628.75 938.9,-626.32 943.06,-623.89 948.09,-621.45 953.96,-619.02 960.66,-616.6 968.16,-614.2 976.41,-611.83 985.39,-609.5 995.06,-607.22 1005.37,-604.99 1016.28,-602.83 1027.75,-600.75 1039.72,-598.74 1052.15,-596.83"/>
<text text-anchor="middle" x="1209.48" y="-627.49" font-family="sans-serif" font-size="16.00">RecoleccionInformacionManualContext</text>
</g>
<!-- ValidacionInformacionConsolidadaContext&#45;&gt;RecoleccionInformacionManualContext -->
<g id="edge5" class="edge">
<title>ValidacionInformacionConsolidadaContext&#45;&gt;RecoleccionInformacionManualContext</title>
<path fill="none" stroke="black" stroke-width="2" d="M1536.85,-746.09C1483.89,-737.46 1428.87,-726.03 1378.48,-710.93 1345.93,-701.18 1311.65,-686.2 1282.54,-671.92"/>
<text text-anchor="middle" x="1453.98" y="-701.33" font-family="sans-serif" font-size="12.00"> &#160;&#160;&#160;&#160;&#160;&#160;&#160;&#160;&#160;&#160;&#160;&#160;&#160;&#160;&#160;&#160;&#160;&#160;&#160;&#160;&#160;&#160;&#160;&#160;&#160;&#160;&#160;&#160;&#160;&#160;&#160;&#160;&#160;&#160;&#160;&#160;&#160;&#160;&#160;</text>
<polygon fill="white" stroke="transparent" points="1275.54,-662.92 1275.54,-679.92 1289.54,-679.92 1289.54,-662.92 1275.54,-662.92"/>
<text text-anchor="start" x="1277.54" y="-668.32" font-family="sans-serif" font-size="12.00">D</text>
<polygon fill="white" stroke="transparent" points="1529.85,-737.09 1529.85,-754.09 1543.85,-754.09 1543.85,-737.09 1529.85,-737.09"/>
<text text-anchor="start" x="1531.85" y="-742.49" font-family="sans-serif" font-size="12.00">U</text>
</g>
<!-- ValidacionAuditoriaContext -->
<g id="node6" class="node">
<title>ValidacionAuditoriaContext</title>
<polygon fill="none" stroke="black" stroke-width="2" points="2504.63,-523.63 2493.71,-522.34 2483.1,-520.95 2472.84,-519.46 2462.97,-517.89 2453.54,-516.23 2444.58,-514.49 2436.14,-512.69 2428.23,-510.82 2420.9,-508.89 2414.17,-506.9 2408.07,-504.87 2402.61,-502.8 2397.83,-500.69 2393.72,-498.55 2390.31,-496.39 2387.6,-494.21 2385.59,-492.02 2384.29,-489.82 2383.69,-487.63 2383.79,-485.43 2384.57,-483.25 2386.03,-481.08 2388.14,-478.92 2390.9,-476.8 2394.27,-474.7 2398.24,-472.63 2402.78,-470.6 2407.86,-468.61 2413.45,-466.67 2419.52,-464.77 2426.03,-462.93 2432.96,-461.14 2440.28,-459.42 2447.93,-457.75 2455.9,-456.16 2464.15,-454.63 2472.64,-453.17 2481.33,-451.79 2490.2,-450.49 2499.22,-449.27 2508.34,-448.13 2517.55,-447.08 2526.81,-446.12 2536.1,-445.25 2545.39,-444.48 2554.66,-443.8 2563.88,-443.22 2573.03,-442.74 2582.11,-442.36 2591.08,-442.09 2599.93,-441.92 2608.66,-441.86 2617.24,-441.91 2625.67,-442.07 2633.94,-442.34 2642.03,-442.72 2649.95,-443.21 2657.69,-443.81 2665.24,-444.53 2672.59,-445.35 2679.74,-446.29 2686.69,-447.33 2693.44,-448.48 2699.97,-449.74 2706.29,-451.11 2712.38,-452.57 2718.26,-454.13 2723.9,-455.79 2729.31,-457.54 2734.47,-459.37 2739.38,-461.29 2744.04,-463.29 2748.42,-465.36 2752.53,-467.5 2756.34,-469.7 2759.85,-471.95 2763.05,-474.25 2765.92,-476.6 2768.44,-478.98 2770.61,-481.39 2772.4,-483.82 2773.8,-486.26 2774.8,-488.71 2775.37,-491.15 2775.52,-493.58 2775.21,-495.99 2774.44,-498.38 2773.19,-500.73 2771.44,-503.04 2769.2,-505.3 2766.45,-507.5 2763.18,-509.63 2759.38,-511.69 2755.06,-513.67 2750.2,-515.56 2744.82,-517.36 2738.9,-519.06 2732.47,-520.65 2725.52,-522.14 2718.07,-523.51 2710.14,-524.76 2701.73,-525.88 2692.87,-526.88 2683.58,-527.75 2673.89,-528.49 2663.82,-529.09 2653.41,-529.56 2642.69,-529.89 2631.7,-530.08 2620.46,-530.14 2609.03,-530.07 2597.45,-529.86 2585.75,-529.51 2573.99,-529.04 2562.21,-528.44 2550.45,-527.71 2538.76,-526.86 2527.2,-525.9 2515.81,-524.82 2504.63,-523.63"/>
<text text-anchor="middle" x="2591.48" y="-480.96" font-family="sans-serif" font-size="16.00">ValidacionAuditoriaContext</text>
</g>
<!-- CreacionIndiceConfiabilidadContext&#45;&gt;ValidacionAuditoriaContext -->
<g id="edge6" class="edge">
<title>CreacionIndiceConfiabilidadContext&#45;&gt;ValidacionAuditoriaContext</title>
<path fill="none" stroke="black" stroke-width="2" d="M1873.61,-589.97C1892.05,-575.42 1914.52,-560.42 1937.48,-551.65 2017.24,-521.19 2227.17,-503.83 2387.87,-494.66"/>
<text text-anchor="middle" x="2012.98" y="-555.05" font-family="sans-serif" font-size="12.00"> &#160;&#160;&#160;&#160;&#160;&#160;&#160;&#160;&#160;&#160;&#160;&#160;&#160;&#160;&#160;&#160;&#160;&#160;&#160;&#160;&#160;&#160;&#160;&#160;&#160;&#160;&#160;&#160;&#160;&#160;&#160;&#160;&#160;&#160;&#160;&#160;&#160;&#160;&#160;</text>
<polygon fill="white" stroke="transparent" points="2380.87,-485.66 2380.87,-502.66 2394.87,-502.66 2394.87,-485.66 2380.87,-485.66"/>
<text text-anchor="start" x="2382.87" y="-491.06" font-family="sans-serif" font-size="12.00">D</text>
<polygon fill="white" stroke="transparent" points="1866.61,-580.97 1866.61,-597.97 1880.61,-597.97 1880.61,-580.97 1866.61,-580.97"/>
<text text-anchor="start" x="1868.61" y="-586.37" font-family="sans-serif" font-size="12.00">U</text>
</g>
<!-- HabilitacionVisibilidadProducto -->
<g id="node7" class="node">
<title>HabilitacionVisibilidadProducto</title>
<polygon fill="none" stroke="black" stroke-width="2" points="3029.28,-206.18 3025.59,-208.95 3021.37,-211.66 3016.65,-214.31 3011.42,-216.88 3005.73,-219.37 2999.57,-221.77 2992.97,-224.06 2985.96,-226.24 2978.54,-228.3 2970.76,-230.23 2962.62,-232.03 2954.15,-233.68 2945.37,-235.19 2936.32,-236.54 2927.01,-237.74 2917.47,-238.79 2907.72,-239.67 2897.8,-240.39 2887.72,-240.95 2877.51,-241.34 2867.2,-241.58 2856.82,-241.66 2846.38,-241.58 2835.92,-241.35 2825.46,-240.98 2815.03,-240.46 2804.65,-239.8 2794.34,-239.01 2784.13,-238.09 2774.05,-237.06 2764.12,-235.91 2754.36,-234.65 2744.8,-233.29 2735.46,-231.85 2726.36,-230.32 2717.52,-228.71 2708.97,-227.03 2700.72,-225.29 2692.81,-223.49 2685.23,-221.65 2678.03,-219.76 2671.21,-217.84 2664.79,-215.89 2658.79,-213.91 2653.22,-211.92 2648.11,-209.91 2643.47,-207.9 2639.3,-205.88 2635.63,-203.86 2632.47,-201.84 2629.82,-199.83 2627.69,-197.83 2626.1,-195.84 2625.06,-193.87 2624.55,-191.91 2624.61,-189.97 2625.21,-188.05 2626.38,-186.16 2628.1,-184.28 2630.37,-182.43 2633.21,-180.6 2636.59,-178.8 2640.51,-177.02 2644.97,-175.27 2649.96,-173.56 2655.47,-171.87 2661.48,-170.22 2667.98,-168.6 2674.95,-167.02 2682.38,-165.48 2690.25,-163.98 2698.53,-162.52 2707.22,-161.12 2716.27,-159.76 2725.67,-158.46 2735.4,-157.22 2745.41,-156.05 2755.69,-154.94 2766.21,-153.9 2776.94,-152.94 2787.83,-152.06 2798.87,-151.27 2810.02,-150.57 2821.24,-149.97 2832.5,-149.48 2843.77,-149.09 2855.01,-148.81 2866.19,-148.65 2877.27,-148.61 2888.22,-148.69 2899.01,-148.91 2909.61,-149.25 2919.97,-149.73 2930.07,-150.35 2939.88,-151.11 2949.37,-152.01 2958.51,-153.04 2967.27,-154.22 2975.63,-155.54 2983.56,-157 2991.04,-158.59 2998.04,-160.31 3004.55,-162.16 3010.55,-164.14 3016.02,-166.23 3020.95,-168.44 3025.33,-170.75 3029.13,-173.16 3032.37,-175.65 3035.02,-178.23 3037.08,-180.88 3038.55,-183.59 3039.43,-186.35 3039.72,-189.16 3039.42,-191.99 3038.53,-194.84 3037.07,-197.69 3035.03,-200.54 3032.43,-203.38 3029.28,-206.18"/>
<text text-anchor="middle" x="2830.48" y="-189.79" font-family="sans-serif" font-size="16.00">HabilitacionVisibilidadProducto</text>
</g>
<!-- ValidacionAuditoriaContext&#45;&gt;HabilitacionVisibilidadProducto -->
<g id="edge7" class="edge">
<title>ValidacionAuditoriaContext&#45;&gt;HabilitacionVisibilidadProducto</title>
<path fill="none" stroke="black" stroke-width="2" d="M2753.86,-467.94C2804.94,-454.4 2856.14,-430.11 2887.48,-386.87 2918.75,-343.74 2892.28,-283.48 2865.92,-241.98"/>
<text text-anchor="middle" x="2976.98" y="-335.65" font-family="sans-serif" font-size="12.00"> &#160;&#160;&#160;&#160;&#160;&#160;&#160;&#160;&#160;&#160;&#160;&#160;&#160;&#160;&#160;&#160;&#160;&#160;&#160;&#160;&#160;&#160;&#160;&#160;&#160;&#160;&#160;&#160;&#160;&#160;&#160;&#160;&#160;&#160;&#160;&#160;&#160;&#160;&#160;</text>
<polygon fill="white" stroke="transparent" points="2858.92,-232.98 2858.92,-249.98 2872.92,-249.98 2872.92,-232.98 2858.92,-232.98"/>
<text text-anchor="start" x="2860.92" y="-238.38" font-family="sans-serif" font-size="12.00">D</text>
<polygon fill="white" stroke="transparent" points="2746.86,-458.94 2746.86,-475.94 2760.86,-475.94 2760.86,-458.94 2746.86,-458.94"/>
<text text-anchor="start" x="2748.86" y="-464.34" font-family="sans-serif" font-size="12.00">U</text>
</g>
<!-- EnriquecimientoValoresFaltantesContext -->
<g id="node8" class="node">
<title>EnriquecimientoValoresFaltantesContext</title>
<polygon fill="none" stroke="black" stroke-width="2" points="2395.34,-367.74 2383.87,-365.61 2373.01,-363.42 2362.81,-361.17 2353.31,-358.88 2344.56,-356.54 2336.59,-354.17 2329.43,-351.77 2323.13,-349.36 2317.69,-346.94 2313.16,-344.52 2309.54,-342.12 2306.86,-339.72 2305.12,-337.35 2304.33,-335.01 2304.5,-332.71 2305.61,-330.45 2307.68,-328.23 2310.67,-326.07 2314.58,-323.97 2319.39,-321.93 2325.08,-319.96 2331.61,-318.05 2338.96,-316.22 2347.09,-314.47 2355.97,-312.79 2365.55,-311.2 2375.8,-309.68 2386.66,-308.25 2398.09,-306.91 2410.05,-305.65 2422.47,-304.48 2435.32,-303.39 2448.53,-302.39 2462.06,-301.48 2475.85,-300.66 2489.86,-299.93 2504.03,-299.28 2518.31,-298.72 2532.65,-298.25 2547,-297.87 2561.32,-297.58 2575.56,-297.37 2589.68,-297.25 2603.64,-297.22 2617.4,-297.28 2630.92,-297.42 2644.18,-297.65 2657.14,-297.97 2669.76,-298.38 2682.04,-298.88 2693.93,-299.47 2705.43,-300.15 2716.51,-300.91 2727.16,-301.77 2737.36,-302.71 2747.1,-303.75 2756.38,-304.87 2765.17,-306.08 2773.48,-307.38 2781.3,-308.77 2788.62,-310.25 2795.45,-311.81 2801.78,-313.45 2807.6,-315.17 2812.93,-316.97 2817.75,-318.85 2822.07,-320.8 2825.89,-322.82 2829.2,-324.91 2832.01,-327.06 2834.32,-329.26 2836.12,-331.52 2837.42,-333.82 2838.21,-336.16 2838.48,-338.53 2838.25,-340.93 2837.5,-343.35 2836.23,-345.78 2834.43,-348.21 2832.11,-350.64 2829.26,-353.06 2825.88,-355.46 2821.96,-357.82 2817.5,-360.15 2812.49,-362.44 2806.94,-364.66 2800.84,-366.83 2794.19,-368.92 2786.99,-370.92 2779.25,-372.84 2770.97,-374.66 2762.16,-376.38 2752.81,-377.98 2742.95,-379.47 2732.59,-380.83 2721.73,-382.05 2710.4,-383.14 2698.61,-384.09 2686.39,-384.89 2673.76,-385.54 2660.75,-386.04 2647.39,-386.39 2633.71,-386.58 2619.76,-386.61 2605.55,-386.48 2591.15,-386.2 2576.58,-385.76 2561.9,-385.17 2547.15,-384.43 2532.39,-383.54 2517.66,-382.51 2503.01,-381.34 2488.5,-380.04 2474.18,-378.61 2460.11,-377.06 2446.34,-375.39 2432.92,-373.62 2419.92,-371.75 2407.37,-369.78 2395.34,-367.74"/>
<text text-anchor="middle" x="2591.48" y="-334.95" font-family="sans-serif" font-size="16.00">EnriquecimientoValoresFaltantesContext</text>
</g>
<!-- ValidacionAuditoriaContext&#45;&gt;EnriquecimientoValoresFaltantesContext -->
<g id="edge8" class="edge">
<title>ValidacionAuditoriaContext&#45;&gt;EnriquecimientoValoresFaltantesContext</title>
<path fill="none" stroke="black" stroke-width="2" d="M2591.48,-441.72C2591.48,-424.37 2591.48,-404.19 2591.48,-386.39"/>
<text text-anchor="middle" x="2666.98" y="-408.27" font-family="sans-serif" font-size="12.00"> &#160;&#160;&#160;&#160;&#160;&#160;&#160;&#160;&#160;&#160;&#160;&#160;&#160;&#160;&#160;&#160;&#160;&#160;&#160;&#160;&#160;&#160;&#160;&#160;&#160;&#160;&#160;&#160;&#160;&#160;&#160;&#160;&#160;&#160;&#160;&#160;&#160;&#160;&#160;</text>
<polygon fill="white" stroke="transparent" points="2584.48,-377.39 2584.48,-394.39 2598.48,-394.39 2598.48,-377.39 2584.48,-377.39"/>
<text text-anchor="start" x="2586.48" y="-382.79" font-family="sans-serif" font-size="12.00">D</text>
<polygon fill="white" stroke="transparent" points="2584.48,-432.72 2584.48,-449.72 2598.48,-449.72 2598.48,-432.72 2584.48,-432.72"/>
<text text-anchor="start" x="2586.48" y="-438.12" font-family="sans-serif" font-size="12.00">U</text>
</g>
<!-- EnriquecimientoValoresFaltantesContext&#45;&gt;HabilitacionVisibilidadProducto -->
<g id="edge9" class="edge">
<title>EnriquecimientoValoresFaltantesContext&#45;&gt;HabilitacionVisibilidadProducto</title>
<path fill="none" stroke="black" stroke-width="2" d="M2658.06,-297.87C2690.38,-278.51 2729.17,-255.27 2761.77,-235.75"/>
<text text-anchor="middle" x="2792.98" y="-263.02" font-family="sans-serif" font-size="12.00"> &#160;&#160;&#160;&#160;&#160;&#160;&#160;&#160;&#160;&#160;&#160;&#160;&#160;&#160;&#160;&#160;&#160;&#160;&#160;&#160;&#160;&#160;&#160;&#160;&#160;&#160;&#160;&#160;&#160;&#160;&#160;&#160;&#160;&#160;&#160;&#160;&#160;&#160;&#160;</text>
<polygon fill="white" stroke="transparent" points="2754.77,-226.75 2754.77,-243.75 2768.77,-243.75 2768.77,-226.75 2754.77,-226.75"/>
<text text-anchor="start" x="2756.77" y="-232.15" font-family="sans-serif" font-size="12.00">D</text>
<polygon fill="white" stroke="transparent" points="2651.06,-288.87 2651.06,-305.87 2665.06,-305.87 2665.06,-288.87 2651.06,-288.87"/>
<text text-anchor="start" x="2653.06" y="-294.27" font-family="sans-serif" font-size="12.00">U</text>
</g>
<!-- RecoleccionInformacionManualContext&#45;&gt;CapturaInformacionCatastralYPlanosPullContext -->
<g id="edge11" class="edge">
<title>RecoleccionInformacionManualContext&#45;&gt;CapturaInformacionCatastralYPlanosPullContext</title>
<path fill="none" stroke="black" stroke-width="2" d="M1206.99,-672.94C1204.95,-716.36 1203.43,-787.12 1210.48,-847.66 1217.2,-905.31 1233.73,-970.28 1245.51,-1011.91"/>
<text text-anchor="middle" x="1252.48" y="-838.06" font-family="sans-serif" font-size="12.00">Shared Kernel</text>
</g>
<!-- CapturaInformacionContractualPullContext -->
<g id="node10" class="node">
<title>CapturaInformacionContractualPullContext</title>
<polygon fill="none" stroke="black" stroke-width="2" points="950.12,-379.72 933.4,-380.81 916.51,-381.77 899.51,-382.61 882.48,-383.33 865.46,-383.91 848.54,-384.36 831.78,-384.67 815.23,-384.84 798.95,-384.87 783,-384.76 767.44,-384.51 752.3,-384.11 737.65,-383.57 723.51,-382.89 709.93,-382.08 696.95,-381.12 684.59,-380.04 672.89,-378.83 661.86,-377.49 651.52,-376.02 641.9,-374.45 632.99,-372.76 624.81,-370.97 617.36,-369.08 610.65,-367.1 604.67,-365.04 599.41,-362.9 594.88,-360.69 591.05,-358.42 587.92,-356.1 585.48,-353.73 583.7,-351.33 582.57,-348.89 582.08,-346.44 582.2,-343.98 582.93,-341.51 584.23,-339.05 586.09,-336.6 588.49,-334.17 591.42,-331.77 594.86,-329.4 598.78,-327.08 603.19,-324.8 608.05,-322.58 613.36,-320.43 619.11,-318.34 625.28,-316.32 631.86,-314.38 638.86,-312.52 646.24,-310.75 654.02,-309.07 662.19,-307.48 670.73,-305.99 679.65,-304.6 688.93,-303.31 698.58,-302.13 708.58,-301.04 718.94,-300.07 729.65,-299.2 740.69,-298.44 752.07,-297.79 763.76,-297.24 775.77,-296.8 788.08,-296.47 800.68,-296.25 813.54,-296.13 826.65,-296.12 840,-296.21 853.54,-296.4 867.27,-296.69 881.15,-297.08 895.15,-297.57 909.24,-298.15 923.37,-298.83 937.52,-299.6 951.64,-300.46 965.68,-301.41 979.61,-302.44 993.37,-303.56 1006.91,-304.76 1020.19,-306.04 1033.15,-307.4 1045.75,-308.83 1057.92,-310.34 1069.62,-311.91 1080.8,-313.55 1091.39,-315.26 1101.36,-317.03 1110.64,-318.86 1119.2,-320.74 1126.99,-322.67 1133.96,-324.66 1140.07,-326.68 1145.29,-328.75 1149.58,-330.86 1152.92,-333 1155.27,-335.16 1156.62,-337.35 1156.94,-339.56 1156.24,-341.78 1154.49,-344.01 1151.7,-346.24 1147.86,-348.47 1143,-350.69 1137.12,-352.9 1130.24,-355.08 1122.38,-357.23 1113.57,-359.35 1103.85,-361.43 1093.25,-363.46 1081.82,-365.44 1069.6,-367.35 1056.64,-369.2 1043,-370.98 1028.73,-372.67 1013.89,-374.28 998.54,-375.79 982.75,-377.21 966.59,-378.52 950.12,-379.72"/>
<text text-anchor="middle" x="849.48" y="-334.95" font-family="sans-serif" font-size="16.00">CapturaInformacionContractualPullContext</text>
</g>
<!-- RecoleccionInformacionManualContext&#45;&gt;CapturaInformacionContractualPullContext -->
<g id="edge10" class="edge">
<title>RecoleccionInformacionManualContext&#45;&gt;CapturaInformacionContractualPullContext</title>
<path fill="none" stroke="black" stroke-width="2" d="M1154.41,-585.85C1085.97,-530.61 969.97,-436.99 902.49,-382.53"/>
<text text-anchor="middle" x="1131.48" y="-481.66" font-family="sans-serif" font-size="12.00">Shared Kernel</text>
</g>
<!-- CapturaInformacionGISPullContext -->
<g id="node12" class="node">
<title>CapturaInformacionGISPullContext</title>
<polygon fill="none" stroke="black" stroke-width="2" points="1315.9,-235.34 1301.54,-234.51 1287.46,-233.57 1273.72,-232.53 1260.37,-231.38 1247.48,-230.14 1235.08,-228.79 1223.24,-227.36 1211.99,-225.84 1201.38,-224.24 1191.45,-222.56 1182.23,-220.81 1173.76,-219 1166.07,-217.12 1159.17,-215.18 1153.08,-213.2 1147.83,-211.17 1143.41,-209.09 1139.85,-206.99 1137.12,-204.85 1135.25,-202.69 1134.21,-200.51 1134,-198.31 1134.6,-196.11 1135.99,-193.91 1138.16,-191.7 1141.07,-189.51 1144.71,-187.33 1149.03,-185.17 1154.02,-183.03 1159.63,-180.92 1165.82,-178.84 1172.57,-176.81 1179.83,-174.81 1187.57,-172.86 1195.74,-170.97 1204.31,-169.13 1213.24,-167.36 1222.49,-165.65 1232.02,-164 1241.8,-162.44 1251.79,-160.95 1261.96,-159.54 1272.27,-158.22 1282.7,-156.99 1293.21,-155.85 1303.79,-154.81 1314.4,-153.86 1325.02,-153.02 1335.63,-152.28 1346.22,-151.64 1356.76,-151.12 1367.24,-150.71 1377.65,-150.4 1387.98,-150.22 1398.21,-150.15 1408.33,-150.19 1418.34,-150.35 1428.23,-150.63 1438,-151.03 1447.63,-151.54 1457.12,-152.17 1466.46,-152.91 1475.65,-153.77 1484.69,-154.75 1493.55,-155.83 1502.25,-157.02 1510.76,-158.32 1519.08,-159.72 1527.2,-161.22 1535.11,-162.81 1542.78,-164.5 1550.22,-166.27 1557.39,-168.13 1564.29,-170.07 1570.9,-172.07 1577.19,-174.15 1583.14,-176.28 1588.74,-178.47 1593.95,-180.71 1598.75,-182.99 1603.12,-185.31 1607.03,-187.65 1610.46,-190.02 1613.38,-192.4 1615.76,-194.78 1617.58,-197.17 1618.82,-199.55 1619.44,-201.91 1619.44,-204.25 1618.78,-206.56 1617.45,-208.83 1615.44,-211.06 1612.73,-213.24 1609.3,-215.36 1605.16,-217.42 1600.29,-219.41 1594.69,-221.32 1588.37,-223.15 1581.33,-224.89 1573.58,-226.54 1565.13,-228.09 1555.99,-229.54 1546.2,-230.88 1535.77,-232.11 1524.74,-233.23 1513.13,-234.24 1500.98,-235.12 1488.33,-235.88 1475.23,-236.52 1461.72,-237.03 1447.84,-237.42 1433.66,-237.69 1419.22,-237.82 1404.58,-237.84 1389.81,-237.72 1374.95,-237.49 1360.06,-237.13 1345.22,-236.65 1330.48,-236.05 1315.9,-235.34"/>
<text text-anchor="middle" x="1385.48" y="-189.79" font-family="sans-serif" font-size="16.00">CapturaInformacionGISPullContext</text>
</g>
<!-- RecoleccionInformacionManualContext&#45;&gt;CapturaInformacionGISPullContext -->
<g id="edge13" class="edge">
<title>RecoleccionInformacionManualContext&#45;&gt;CapturaInformacionGISPullContext</title>
<path fill="none" stroke="black" stroke-width="2" d="M1206.89,-583.39C1206.17,-543.15 1208.73,-484.19 1225.48,-435.87 1252.25,-358.71 1309.5,-282.28 1347.75,-236.76"/>
<text text-anchor="middle" x="1280.48" y="-408.27" font-family="sans-serif" font-size="12.00">Shared Kernel</text>
</g>
<!-- CapturaInformacionDeCompaniasPullContext -->
<g id="node14" class="node">
<title>CapturaInformacionDeCompaniasPullContext</title>
<polygon fill="none" stroke="black" stroke-width="2" points="1805.85,-468.09 1813.29,-470.72 1819.95,-473.38 1825.79,-476.07 1830.8,-478.76 1834.94,-481.44 1838.19,-484.12 1840.53,-486.77 1841.96,-489.39 1842.46,-491.98 1842.01,-494.51 1840.63,-496.98 1838.3,-499.39 1835.03,-501.72 1830.84,-503.97 1825.72,-506.14 1819.7,-508.22 1812.8,-510.2 1805.03,-512.07 1796.43,-513.85 1787.02,-515.51 1776.84,-517.07 1765.92,-518.51 1754.3,-519.84 1742.03,-521.05 1729.15,-522.15 1715.7,-523.13 1701.74,-524 1687.3,-524.76 1672.46,-525.41 1657.25,-525.94 1641.74,-526.37 1625.98,-526.7 1610.01,-526.92 1593.91,-527.04 1577.72,-527.06 1561.49,-526.99 1545.28,-526.83 1529.15,-526.57 1513.14,-526.24 1497.31,-525.81 1481.7,-525.31 1466.36,-524.73 1451.33,-524.07 1436.66,-523.33 1422.39,-522.53 1408.55,-521.66 1395.19,-520.71 1382.32,-519.7 1369.99,-518.62 1358.22,-517.48 1347.04,-516.28 1336.46,-515.01 1326.51,-513.68 1317.21,-512.29 1308.57,-510.84 1300.6,-509.33 1293.31,-507.77 1286.72,-506.14 1280.81,-504.46 1275.61,-502.72 1271.12,-500.93 1267.32,-499.08 1264.22,-497.18 1261.83,-495.24 1260.12,-493.24 1259.11,-491.2 1258.78,-489.12 1259.12,-487.01 1260.13,-484.86 1261.79,-482.67 1264.11,-480.47 1267.06,-478.24 1270.64,-475.99 1274.84,-473.74 1279.64,-471.48 1285.03,-469.23 1291.01,-466.98 1297.55,-464.76 1304.65,-462.56 1312.29,-460.39 1320.46,-458.26 1329.14,-456.18 1338.32,-454.16 1347.99,-452.2 1358.12,-450.32 1368.71,-448.52 1379.73,-446.81 1391.17,-445.19 1403,-443.69 1415.21,-442.3 1427.78,-441.03 1440.69,-439.89 1453.9,-438.89 1467.4,-438.02 1481.16,-437.3 1495.15,-436.74 1509.34,-436.33 1523.7,-436.08 1538.21,-435.99 1552.82,-436.06 1567.5,-436.3 1582.21,-436.7 1596.92,-437.27 1611.59,-438 1626.18,-438.9 1640.64,-439.95 1654.94,-441.16 1669.03,-442.52 1682.86,-444.03 1696.4,-445.67 1709.6,-447.45 1722.41,-449.36 1734.79,-451.38 1746.7,-453.51 1758.09,-455.75 1768.93,-458.07 1779.16,-460.48 1788.75,-462.96 1797.66,-465.5 1805.85,-468.09"/>
<text text-anchor="middle" x="1538.48" y="-480.96" font-family="sans-serif" font-size="16.00">CapturaInformacionDeCompaniasPullContext</text>
</g>
<!-- RecoleccionInformacionManualContext&#45;&gt;CapturaInformacionDeCompaniasPullContext -->
<g id="edge12" class="edge">
<title>RecoleccionInformacionManualContext&#45;&gt;CapturaInformacionDeCompaniasPullContext</title>
<path fill="none" stroke="black" stroke-width="2" d="M1311.33,-585.55C1356.15,-565.86 1408.26,-542.97 1451.26,-524.08"/>
<text text-anchor="middle" x="1426.48" y="-555.05" font-family="sans-serif" font-size="12.00">Shared Kernel</text>
</g>
<!-- CapturaInformacionContractualPullContext&#45;&gt;CapturaInformacionCatastralYPlanosPullContext -->
<g id="edge16" class="edge">
<title>CapturaInformacionContractualPullContext&#45;&gt;CapturaInformacionCatastralYPlanosPullContext</title>
<path fill="none" stroke="black" stroke-width="2" d="M775.59,-384.85C744.98,-409.58 716.48,-443.43 716.48,-483.76 716.48,-915.44 716.48,-915.44 716.48,-915.44 716.48,-975.32 842.11,-1009.92 972.4,-1029.7"/>
<text text-anchor="middle" x="758.48" y="-701.33" font-family="sans-serif" font-size="12.00">Shared Kernel</text>
</g>
<!-- CapturaInformacionContractualPullContext&#45;&gt;ConsolidacionYEnriquecimientoContext -->
<g id="edge17" class="edge">
<title>CapturaInformacionContractualPullContext&#45;&gt;ConsolidacionYEnriquecimientoContext</title>
<path fill="none" stroke="black" stroke-width="2" d="M818.08,-384.85C773.46,-455 704.22,-591.4 771.48,-679.93 782.27,-694.13 1232.65,-814.17 1468.97,-876.38"/>
<text text-anchor="middle" x="846.98" y="-628.19" font-family="sans-serif" font-size="12.00"> &#160;&#160;&#160;&#160;&#160;&#160;&#160;&#160;&#160;&#160;&#160;&#160;&#160;&#160;&#160;&#160;&#160;&#160;&#160;&#160;&#160;&#160;&#160;&#160;&#160;&#160;&#160;&#160;&#160;&#160;&#160;&#160;&#160;&#160;&#160;&#160;&#160;&#160;&#160;</text>
<polygon fill="white" stroke="transparent" points="1461.97,-867.38 1461.97,-884.38 1475.97,-884.38 1475.97,-867.38 1461.97,-867.38"/>
<text text-anchor="start" x="1463.97" y="-872.78" font-family="sans-serif" font-size="12.00">D</text>
<polygon fill="white" stroke="transparent" points="811.08,-375.85 811.08,-392.85 825.08,-392.85 825.08,-375.85 811.08,-375.85"/>
<text text-anchor="start" x="813.08" y="-381.25" font-family="sans-serif" font-size="12.00">U</text>
</g>
<!-- CapturaInformacionContractualPushContext -->
<g id="node11" class="node">
<title>CapturaInformacionContractualPushContext</title>
<polygon fill="none" stroke="black" stroke-width="2" points="763.28,-150.06 781.56,-149.6 799.85,-149.27 818.06,-149.06 836.13,-148.97 853.98,-149.01 871.55,-149.18 888.76,-149.48 905.55,-149.9 921.87,-150.46 937.65,-151.14 952.85,-151.94 967.4,-152.87 981.27,-153.92 994.42,-155.09 1006.81,-156.37 1018.41,-157.76 1029.19,-159.26 1039.13,-160.86 1048.22,-162.56 1056.43,-164.36 1063.77,-166.24 1070.23,-168.2 1075.81,-170.24 1080.52,-172.34 1084.36,-174.51 1087.35,-176.74 1089.5,-179.01 1090.83,-181.33 1091.36,-183.68 1091.13,-186.05 1090.14,-188.45 1088.43,-190.85 1086.03,-193.26 1082.97,-195.67 1079.27,-198.07 1074.97,-200.44 1070.1,-202.8 1064.68,-205.12 1058.76,-207.4 1052.35,-209.63 1045.48,-211.82 1038.19,-213.94 1030.49,-216 1022.41,-217.99 1013.97,-219.9 1005.2,-221.73 996.1,-223.47 986.71,-225.13 977.03,-226.69 967.07,-228.15 956.86,-229.51 946.4,-230.76 935.69,-231.91 924.77,-232.94 913.61,-233.87 902.25,-234.68 890.68,-235.37 878.91,-235.95 866.95,-236.42 854.81,-236.76 842.49,-236.99 830,-237.1 817.36,-237.1 804.57,-236.98 791.66,-236.75 778.63,-236.4 765.5,-235.95 752.29,-235.38 739.02,-234.71 725.72,-233.94 712.41,-233.06 699.12,-232.08 685.89,-231.01 672.74,-229.84 659.71,-228.58 646.85,-227.24 634.18,-225.81 621.76,-224.31 609.62,-222.72 597.82,-221.07 586.4,-219.35 575.41,-217.56 564.89,-215.71 554.91,-213.81 545.49,-211.86 536.7,-209.86 528.58,-207.81 521.19,-205.73 514.55,-203.62 508.72,-201.48 503.75,-199.32 499.65,-197.13 496.48,-194.94 494.26,-192.74 493.02,-190.53 492.79,-188.33 493.58,-186.13 495.41,-183.95 498.28,-181.79 502.21,-179.65 507.19,-177.54 513.22,-175.46 520.28,-173.43 528.36,-171.44 537.43,-169.5 547.48,-167.63 558.46,-165.81 570.33,-164.06 583.07,-162.38 596.61,-160.78 610.9,-159.26 625.9,-157.83 641.53,-156.5 657.74,-155.26 674.47,-154.12 691.63,-153.08 709.17,-152.16 727.01,-151.34 745.07,-150.64 763.28,-150.06"/>
<text text-anchor="middle" x="804.48" y="-189.79" font-family="sans-serif" font-size="16.00">CapturaInformacionContractualPushContext</text>
</g>
<!-- CapturaInformacionContractualPullContext&#45;&gt;CapturaInformacionContractualPushContext -->
<g id="edge14" class="edge">
<title>CapturaInformacionContractualPullContext&#45;&gt;CapturaInformacionContractualPushContext</title>
<path fill="none" stroke="black" stroke-width="2" d="M836.35,-295.96C830.54,-277.47 823.71,-255.76 817.87,-237.18"/>
<text text-anchor="middle" x="870.48" y="-263.02" font-family="sans-serif" font-size="12.00">Shared Kernel</text>
</g>
<!-- CapturaInformacionContractualPullContext&#45;&gt;CapturaInformacionGISPullContext -->
<g id="edge15" class="edge">
<title>CapturaInformacionContractualPullContext&#45;&gt;CapturaInformacionGISPullContext</title>
<path fill="none" stroke="black" stroke-width="2" d="M964.76,-301.3C1009.46,-287.6 1061.19,-272.3 1108.48,-259.62 1148.68,-248.85 1192.42,-238.13 1233.02,-228.58"/>
<text text-anchor="middle" x="1150.48" y="-263.02" font-family="sans-serif" font-size="12.00">Shared Kernel</text>
</g>
<!-- CapturaInformacionGISPullContext&#45;&gt;CapturaInformacionCatastralYPlanosPullContext -->
<g id="edge19" class="edge">
<title>CapturaInformacionGISPullContext&#45;&gt;CapturaInformacionCatastralYPlanosPullContext</title>
<path fill="none" stroke="black" stroke-width="2" d="M1616.97,-209.46C1880.97,-229.61 2276.48,-270.94 2276.48,-337.75 2276.48,-915.44 2276.48,-915.44 2276.48,-915.44 2276.48,-986.82 1878.52,-1023.55 1580.24,-1041.05"/>
<text text-anchor="middle" x="2318.48" y="-628.19" font-family="sans-serif" font-size="12.00">Shared Kernel</text>
</g>
<!-- CapturaInformacionGISPullContext&#45;&gt;ConsolidacionYEnriquecimientoContext -->
<g id="edge20" class="edge">
<title>CapturaInformacionGISPullContext&#45;&gt;ConsolidacionYEnriquecimientoContext</title>
<path fill="none" stroke="black" stroke-width="2" d="M1619.65,-201.52C1796.08,-211.25 2019.49,-234.59 2091.48,-290.62 2109.3,-304.49 2110.48,-315.17 2110.48,-337.75 2110.48,-773.8 2110.48,-773.8 2110.48,-773.8 2110.48,-794.64 2107.74,-803.62 2091.48,-816.66 2048.75,-850.94 1927.53,-875.2 1817.48,-890.86"/>
<text text-anchor="middle" x="2185.98" y="-555.05" font-family="sans-serif" font-size="12.00"> &#160;&#160;&#160;&#160;&#160;&#160;&#160;&#160;&#160;&#160;&#160;&#160;&#160;&#160;&#160;&#160;&#160;&#160;&#160;&#160;&#160;&#160;&#160;&#160;&#160;&#160;&#160;&#160;&#160;&#160;&#160;&#160;&#160;&#160;&#160;&#160;&#160;&#160;&#160;</text>
<polygon fill="white" stroke="transparent" points="1810.48,-881.86 1810.48,-898.86 1824.48,-898.86 1824.48,-881.86 1810.48,-881.86"/>
<text text-anchor="start" x="1812.48" y="-887.26" font-family="sans-serif" font-size="12.00">D</text>
<polygon fill="white" stroke="transparent" points="1612.65,-192.52 1612.65,-209.52 1626.65,-209.52 1626.65,-192.52 1612.65,-192.52"/>
<text text-anchor="start" x="1614.65" y="-197.92" font-family="sans-serif" font-size="12.00">U</text>
</g>
<!-- CapturaInformacionGISPushContext -->
<g id="node13" class="node">
<title>CapturaInformacionGISPushContext</title>
<polygon fill="none" stroke="black" stroke-width="2" points="1228.98,-15.45 1240.44,-13.53 1252.27,-11.72 1264.41,-10.01 1276.82,-8.42 1289.44,-6.95 1302.25,-5.62 1315.18,-4.42 1328.2,-3.37 1341.25,-2.46 1354.3,-1.7 1367.31,-1.09 1380.23,-0.64 1393.02,-0.35 1405.66,-0.22 1418.09,-0.25 1430.3,-0.44 1442.25,-0.78 1453.92,-1.28 1465.27,-1.94 1476.29,-2.74 1486.94,-3.69 1497.22,-4.79 1507.11,-6.02 1516.58,-7.38 1525.63,-8.86 1534.25,-10.47 1542.42,-12.18 1550.15,-14 1557.41,-15.91 1564.21,-17.91 1570.54,-19.99 1576.4,-22.14 1581.78,-24.35 1586.7,-26.62 1591.13,-28.93 1595.1,-31.27 1598.58,-33.64 1601.59,-36.03 1604.13,-38.43 1606.2,-40.83 1607.79,-43.23 1608.9,-45.61 1609.55,-47.97 1609.71,-50.31 1609.41,-52.61 1608.63,-54.88 1607.37,-57.1 1605.64,-59.26 1603.43,-61.38 1600.74,-63.43 1597.57,-65.42 1593.91,-67.35 1589.78,-69.2 1585.16,-70.98 1580.06,-72.69 1574.47,-74.32 1568.4,-75.87 1561.86,-77.34 1554.83,-78.73 1547.34,-80.04 1539.38,-81.27 1530.96,-82.41 1522.09,-83.47 1512.79,-84.44 1503.06,-85.34 1492.91,-86.14 1482.38,-86.87 1471.47,-87.5 1460.2,-88.06 1448.61,-88.53 1436.71,-88.92 1424.54,-89.22 1412.12,-89.43 1399.48,-89.57 1386.67,-89.61 1373.71,-89.57 1360.66,-89.45 1347.54,-89.23 1334.39,-88.93 1321.27,-88.55 1308.22,-88.07 1295.28,-87.5 1282.5,-86.85 1269.92,-86.1 1257.59,-85.26 1245.57,-84.33 1233.89,-83.31 1222.61,-82.2 1211.77,-81 1201.41,-79.7 1191.57,-78.31 1182.31,-76.84 1173.65,-75.28 1165.63,-73.63 1158.3,-71.89 1151.68,-70.07 1145.79,-68.18 1140.67,-66.2 1136.35,-64.16 1132.82,-62.05 1130.13,-59.87 1128.27,-57.63 1127.25,-55.34 1127.08,-53.01 1127.76,-50.63 1129.28,-48.22 1131.65,-45.78 1134.84,-43.33 1138.84,-40.86 1143.63,-38.39 1149.2,-35.92 1155.52,-33.47 1162.55,-31.04 1170.27,-28.65 1178.65,-26.29 1187.64,-23.99 1197.21,-21.74 1207.32,-19.57 1217.92,-17.47 1228.98,-15.45"/>
<text text-anchor="middle" x="1385.48" y="-44.48" font-family="sans-serif" font-size="16.00">CapturaInformacionGISPushContext</text>
</g>
<!-- CapturaInformacionGISPullContext&#45;&gt;CapturaInformacionGISPushContext -->
<g id="edge18" class="edge">
<title>CapturaInformacionGISPullContext&#45;&gt;CapturaInformacionGISPushContext</title>
<path fill="none" stroke="black" stroke-width="2" d="M1385.48,-149.98C1385.48,-131 1385.48,-108.75 1385.48,-90"/>
<text text-anchor="middle" x="1427.48" y="-117.95" font-family="sans-serif" font-size="12.00">Shared Kernel</text>
</g>
<!-- CapturaInformacionDeCompaniasPullContext&#45;&gt;CapturaInformacionCatastralYPlanosPullContext -->
<g id="edge23" class="edge">
<title>CapturaInformacionDeCompaniasPullContext&#45;&gt;CapturaInformacionCatastralYPlanosPullContext</title>
<path fill="none" stroke="black" stroke-width="2" d="M1542.27,-527C1543.88,-571.61 1538.69,-641.5 1496.48,-679.93 1446.84,-725.14 1396.77,-653.44 1346.48,-697.93 1322.75,-718.93 1282.91,-922.12 1266.21,-1012.34"/>
<text text-anchor="middle" x="1373.48" y="-769.7" font-family="sans-serif" font-size="12.00">Shared Kernel</text>
</g>
<!-- CapturaInformacionDeCompaniasPullContext&#45;&gt;ConsolidacionYEnriquecimientoContext -->
<g id="edge24" class="edge">
<title>CapturaInformacionDeCompaniasPullContext&#45;&gt;ConsolidacionYEnriquecimientoContext</title>
<path fill="none" stroke="black" stroke-width="2" d="M1548.89,-527.12C1558.56,-575.56 1566.49,-656.14 1529.48,-710.93 1518.57,-727.09 1500.07,-712.56 1489.48,-728.93 1468.31,-761.68 1472.59,-781.52 1489.48,-816.66 1499.39,-837.27 1516.06,-854.86 1533.9,-869.17"/>
<text text-anchor="middle" x="1611.98" y="-701.33" font-family="sans-serif" font-size="12.00"> &#160;&#160;&#160;&#160;&#160;&#160;&#160;&#160;&#160;&#160;&#160;&#160;&#160;&#160;&#160;&#160;&#160;&#160;&#160;&#160;&#160;&#160;&#160;&#160;&#160;&#160;&#160;&#160;&#160;&#160;&#160;&#160;&#160;&#160;&#160;&#160;&#160;&#160;&#160;</text>
<polygon fill="white" stroke="transparent" points="1526.9,-860.17 1526.9,-877.17 1540.9,-877.17 1540.9,-860.17 1526.9,-860.17"/>
<text text-anchor="start" x="1528.9" y="-865.57" font-family="sans-serif" font-size="12.00">D</text>
<polygon fill="white" stroke="transparent" points="1541.89,-518.12 1541.89,-535.12 1555.89,-535.12 1555.89,-518.12 1541.89,-518.12"/>
<text text-anchor="start" x="1543.89" y="-523.52" font-family="sans-serif" font-size="12.00">U</text>
</g>
<!-- CapturaInformacionDeCompaniasPullContext&#45;&gt;CapturaInformacionContractualPullContext -->
<g id="edge25" class="edge">
<title>CapturaInformacionDeCompaniasPullContext&#45;&gt;CapturaInformacionContractualPullContext</title>
<path fill="none" stroke="black" stroke-width="2" d="M1321.99,-457.87C1250.98,-447.6 1171.97,-434.28 1100.48,-417.87 1054.67,-407.36 1005.09,-392.66 962.19,-378.85"/>
<text text-anchor="middle" x="1142.48" y="-408.27" font-family="sans-serif" font-size="12.00">Shared Kernel</text>
</g>
<!-- CapturaInformacionDeCompaniasPullContext&#45;&gt;CapturaInformacionGISPullContext -->
<g id="edge22" class="edge">
<title>CapturaInformacionDeCompaniasPullContext&#45;&gt;CapturaInformacionGISPullContext</title>
<path fill="none" stroke="black" stroke-width="2" d="M1442.49,-439.61C1422.24,-425.69 1403.41,-408.22 1391.48,-386.87 1365.82,-340.96 1369.46,-278.76 1376.07,-237.69"/>
<text text-anchor="middle" x="1433.48" y="-335.65" font-family="sans-serif" font-size="12.00">Shared Kernel</text>
</g>
<!-- CapturaInformacionDeCompaniasPushContext -->
<g id="node15" class="node">
<title>CapturaInformacionDeCompaniasPushContext</title>
<polygon fill="none" stroke="black" stroke-width="2" points="1488.95,-343.63 1486.52,-340.77 1484.92,-337.92 1484.16,-335.08 1484.24,-332.28 1485.17,-329.51 1486.95,-326.79 1489.59,-324.12 1493.07,-321.53 1497.39,-319.02 1502.54,-316.59 1508.52,-314.26 1515.29,-312.03 1522.86,-309.91 1531.2,-307.91 1540.28,-306.03 1550.08,-304.28 1560.57,-302.66 1571.72,-301.17 1583.5,-299.82 1595.87,-298.61 1608.8,-297.54 1622.25,-296.6 1636.17,-295.81 1650.53,-295.15 1665.27,-294.63 1680.36,-294.24 1695.74,-293.99 1711.37,-293.86 1727.21,-293.86 1743.19,-293.98 1759.28,-294.22 1775.41,-294.57 1791.56,-295.02 1807.65,-295.58 1823.65,-296.24 1839.51,-296.99 1855.17,-297.83 1870.6,-298.75 1885.74,-299.75 1900.55,-300.83 1915,-301.97 1929.03,-303.18 1942.61,-304.44 1955.7,-305.77 1968.26,-307.14 1980.27,-308.57 1991.68,-310.04 2002.47,-311.56 2012.62,-313.12 2022.09,-314.71 2030.87,-316.35 2038.93,-318.01 2046.25,-319.72 2052.83,-321.45 2058.64,-323.21 2063.68,-325.01 2067.94,-326.83 2071.41,-328.67 2074.09,-330.55 2075.98,-332.44 2077.07,-334.37 2077.37,-336.31 2076.88,-338.27 2075.62,-340.25 2073.58,-342.25 2070.78,-344.26 2067.24,-346.28 2062.95,-348.31 2057.95,-350.35 2052.24,-352.39 2045.84,-354.42 2038.78,-356.45 2031.07,-358.47 2022.73,-360.47 2013.8,-362.45 2004.28,-364.4 1994.21,-366.32 1983.62,-368.19 1972.52,-370.02 1960.95,-371.8 1948.93,-373.51 1936.5,-375.15 1923.69,-376.72 1910.51,-378.21 1897.02,-379.6 1883.23,-380.89 1869.18,-382.08 1854.91,-383.16 1840.44,-384.12 1825.82,-384.95 1811.07,-385.64 1796.23,-386.2 1781.34,-386.62 1766.42,-386.89 1751.53,-387 1736.69,-386.96 1721.94,-386.76 1707.31,-386.4 1692.86,-385.88 1678.6,-385.19 1664.58,-384.35 1650.83,-383.34 1637.39,-382.17 1624.3,-380.85 1611.6,-379.37 1599.31,-377.75 1587.47,-375.98 1576.12,-374.07 1565.29,-372.04 1555.02,-369.88 1545.33,-367.61 1536.25,-365.23 1527.82,-362.75 1520.06,-360.19 1513,-357.56 1506.66,-354.86 1501.07,-352.1 1496.24,-349.3 1492.19,-346.47 1488.95,-343.63"/>
<text text-anchor="middle" x="1783.48" y="-334.95" font-family="sans-serif" font-size="16.00">CapturaInformacionDeCompaniasPushContext</text>
</g>
<!-- CapturaInformacionDeCompaniasPullContext&#45;&gt;CapturaInformacionDeCompaniasPushContext -->
<g id="edge21" class="edge">
<title>CapturaInformacionDeCompaniasPullContext&#45;&gt;CapturaInformacionDeCompaniasPushContext</title>
<path fill="none" stroke="black" stroke-width="2" d="M1616,-438.2C1644.04,-421.72 1675.73,-403.09 1703.94,-386.51"/>
<text text-anchor="middle" x="1709.48" y="-408.27" font-family="sans-serif" font-size="12.00">Shared Kernel</text>
</g>
</g>
</svg>
