<svg width="2000px" height="366px"
 viewBox="0.00 0.00 3764.02 687.72" xmlns="http://www.w3.org/2000/svg" xmlns:xlink="http://www.w3.org/1999/xlink">
<g id="graph0" class="graph" transform="scale(1.0 1.0) rotate(0) translate(4 683.72)">
<title>ContextMapGraph</title>
<polygon fill="white" stroke="transparent" points="-4,4 -4,-683.72 3760.02,-683.72 3760.02,4 -4,4"/>
<!-- AplicacionReglasNegocioAuditoriaContext -->
<g id="node1" class="node">
<title>AplicacionReglasNegocioAuditoriaContext</title>
<polygon fill="none" stroke="black" stroke-width="2" points="874.05,-519.73 860.7,-521.63 846.95,-523.42 832.86,-525.11 818.46,-526.67 803.83,-528.11 789.01,-529.41 774.06,-530.58 759.03,-531.6 743.97,-532.47 728.93,-533.2 713.96,-533.76 699.11,-534.18 684.41,-534.43 669.92,-534.52 655.67,-534.45 641.69,-534.22 628.03,-533.84 614.72,-533.29 601.78,-532.6 589.25,-531.75 577.13,-530.75 565.47,-529.62 554.28,-528.34 543.57,-526.94 533.35,-525.41 523.65,-523.77 514.47,-522.01 505.82,-520.15 497.7,-518.2 490.13,-516.16 483.1,-514.04 476.62,-511.85 470.68,-509.6 465.3,-507.3 460.46,-504.96 456.17,-502.58 452.44,-500.18 449.24,-497.76 446.59,-495.33 444.49,-492.9 442.93,-490.48 441.9,-488.07 441.42,-485.69 441.48,-483.33 442.08,-481.01 443.22,-478.73 444.9,-476.49 447.12,-474.31 449.88,-472.19 453.19,-470.12 457.04,-468.13 461.44,-466.2 466.38,-464.34 471.86,-462.56 477.9,-460.85 484.48,-459.22 491.6,-457.68 499.26,-456.22 507.46,-454.84 516.19,-453.54 525.45,-452.33 535.22,-451.2 545.5,-450.17 556.27,-449.21 567.52,-448.34 579.23,-447.56 591.38,-446.87 603.95,-446.26 616.92,-445.74 630.26,-445.3 643.94,-444.95 657.92,-444.68 672.18,-444.51 686.67,-444.41 701.36,-444.41 716.21,-444.49 731.16,-444.66 746.17,-444.92 761.2,-445.26 776.2,-445.7 791.1,-446.22 805.87,-446.83 820.45,-447.54 834.79,-448.33 848.82,-449.22 862.5,-450.19 875.77,-451.26 888.58,-452.42 900.88,-453.67 912.61,-455.01 923.73,-456.44 934.19,-457.96 943.94,-459.56 952.95,-461.25 961.17,-463.03 968.56,-464.88 975.1,-466.81 980.75,-468.82 985.49,-470.9 989.3,-473.04 992.15,-475.25 994.04,-477.51 994.96,-479.82 994.9,-482.18 993.86,-484.57 991.86,-487 988.88,-489.45 984.96,-491.92 980.11,-494.39 974.34,-496.87 967.7,-499.34 960.19,-501.79 951.87,-504.22 942.76,-506.61 932.91,-508.96 922.35,-511.26 911.14,-513.49 899.32,-515.65 886.94,-517.74 874.05,-519.73"/>
<text text-anchor="middle" x="698.24" y="-482.31" font-family="sans-serif" font-size="16.00">AplicacionReglasNegocioAuditoriaContext</text>
</g>
<!-- ValidacionDeDatosContext -->
<g id="node2" class="node">
<title>ValidacionDeDatosContext</title>
<polygon fill="none" stroke="black" stroke-width="2" points="605.75,-301.56 615.98,-300.07 626.4,-298.69 636.97,-297.43 647.65,-296.3 658.4,-295.3 669.17,-294.43 679.94,-293.7 690.66,-293.12 701.28,-292.69 711.79,-292.4 722.14,-292.26 732.29,-292.28 742.23,-292.44 751.92,-292.76 761.33,-293.23 770.44,-293.85 779.23,-294.61 787.68,-295.52 795.77,-296.58 803.48,-297.76 810.8,-299.08 817.73,-300.53 824.24,-302.1 830.34,-303.78 836.02,-305.58 841.28,-307.47 846.11,-309.46 850.51,-311.53 854.49,-313.68 858.05,-315.9 861.19,-318.19 863.92,-320.52 866.24,-322.9 868.16,-325.32 869.68,-327.76 870.82,-330.22 871.57,-332.69 871.94,-335.16 871.95,-337.63 871.6,-340.08 870.89,-342.51 869.84,-344.91 868.44,-347.27 866.7,-349.59 864.63,-351.86 862.23,-354.07 859.51,-356.22 856.46,-358.3 853.1,-360.32 849.42,-362.26 845.42,-364.11 841.11,-365.89 836.49,-367.58 831.57,-369.18 826.33,-370.68 820.79,-372.1 814.95,-373.42 808.81,-374.64 802.38,-375.77 795.65,-376.8 788.63,-377.73 781.33,-378.56 773.76,-379.3 765.92,-379.93 757.83,-380.47 749.49,-380.9 740.92,-381.25 732.14,-381.49 723.15,-381.64 713.98,-381.69 704.65,-381.65 695.17,-381.52 685.58,-381.29 675.89,-380.97 666.14,-380.56 656.34,-380.07 646.54,-379.48 636.75,-378.8 627.02,-378.04 617.38,-377.19 607.86,-376.25 598.5,-375.23 589.33,-374.13 580.38,-372.94 571.71,-371.67 563.33,-370.33 555.29,-368.9 547.62,-367.4 540.35,-365.82 533.53,-364.17 527.18,-362.45 521.33,-360.66 516.01,-358.81 511.25,-356.89 507.07,-354.91 503.49,-352.88 500.55,-350.79 498.24,-348.66 496.59,-346.48 495.61,-344.26 495.3,-342.01 495.67,-339.73 496.73,-337.43 498.47,-335.11 500.88,-332.78 503.96,-330.45 507.7,-328.12 512.08,-325.81 517.09,-323.5 522.7,-321.23 528.89,-318.99 535.64,-316.78 542.91,-314.63 550.68,-312.53 558.91,-310.5 567.58,-308.54 576.63,-306.66 586.03,-304.86 595.75,-303.16 605.75,-301.56"/>
<text text-anchor="middle" x="698.24" y="-335.81" font-family="sans-serif" font-size="16.00">ValidacionDeDatosContext</text>
</g>
<!-- AplicacionReglasNegocioAuditoriaContext&#45;&gt;ValidacionDeDatosContext -->
<g id="edge1" class="edge">
<title>AplicacionReglasNegocioAuditoriaContext&#45;&gt;ValidacionDeDatosContext</title>
<path fill="none" stroke="black" stroke-width="2" d="M698.24,-444.09C698.24,-424.56 698.24,-401.27 698.24,-381.73"/>
<text text-anchor="middle" x="732.74" y="-409.76" font-family="sans-serif" font-size="12.00">Partnership</text>
</g>
<!-- EnriquecimientoDeValoresFaltantesAutomatizadosContext -->
<g id="node3" class="node">
<title>EnriquecimientoDeValoresFaltantesAutomatizadosContext</title>
<polygon fill="none" stroke="black" stroke-width="2" points="442.7,-150.61 466.15,-150.99 489.31,-151.5 512.08,-152.12 534.37,-152.86 556.08,-153.7 577.14,-154.66 597.45,-155.72 616.95,-156.88 635.56,-158.15 653.21,-159.51 669.84,-160.96 685.39,-162.5 699.82,-164.13 713.08,-165.84 725.13,-167.62 735.95,-169.47 745.51,-171.38 753.8,-173.36 760.81,-175.39 766.53,-177.47 770.97,-179.59 774.14,-181.75 776.05,-183.95 776.73,-186.17 776.2,-188.41 774.5,-190.66 771.65,-192.92 767.71,-195.19 762.7,-197.45 756.69,-199.7 749.72,-201.94 741.84,-204.15 733.1,-206.34 723.56,-208.49 713.27,-210.61 702.29,-212.68 690.67,-214.7 678.47,-216.67 665.73,-218.57 652.52,-220.41 638.87,-222.18 624.84,-223.88 610.48,-225.49 595.82,-227.02 580.9,-228.46 565.77,-229.8 550.45,-231.06 534.99,-232.21 519.4,-233.25 503.72,-234.2 487.96,-235.03 472.16,-235.75 456.32,-236.36 440.47,-236.85 424.62,-237.23 408.78,-237.49 392.96,-237.63 377.19,-237.65 361.46,-237.55 345.78,-237.33 330.18,-236.99 314.65,-236.53 299.21,-235.96 283.87,-235.27 268.64,-234.46 253.55,-233.54 238.6,-232.52 223.82,-231.38 209.22,-230.14 194.84,-228.8 180.69,-227.36 166.8,-225.83 153.21,-224.21 139.95,-222.51 127.06,-220.72 114.57,-218.86 102.53,-216.93 90.98,-214.93 79.96,-212.88 69.52,-210.77 59.71,-208.61 50.58,-206.41 42.18,-204.18 34.55,-201.91 27.75,-199.63 21.83,-197.32 16.83,-195.01 12.79,-192.7 9.77,-190.38 7.81,-188.08 6.93,-185.79 7.18,-183.53 8.59,-181.3 11.19,-179.1 14.98,-176.94 20,-174.83 26.25,-172.78 33.74,-170.78 42.47,-168.85 52.42,-166.99 63.58,-165.21 75.94,-163.5 89.47,-161.88 104.13,-160.35 119.89,-158.92 136.69,-157.58 154.48,-156.35 173.21,-155.22 192.81,-154.2 213.21,-153.28 234.33,-152.48 256.09,-151.8 278.42,-151.23 301.22,-150.78 324.4,-150.45 347.87,-150.24 371.53,-150.15 395.29,-150.19 419.04,-150.34 442.7,-150.61"/>
<text text-anchor="middle" x="388.24" y="-190.13" font-family="sans-serif" font-size="16.00">EnriquecimientoDeValoresFaltantesAutomatizadosContext</text>
</g>
<!-- ValidacionDeDatosContext&#45;&gt;EnriquecimientoDeValoresFaltantesAutomatizadosContext -->
<g id="edge2" class="edge">
<title>ValidacionDeDatosContext&#45;&gt;EnriquecimientoDeValoresFaltantesAutomatizadosContext</title>
<path fill="none" stroke="black" stroke-width="2" d="M615.17,-300.11C572.22,-280.2 519.79,-255.9 476.16,-235.68"/>
<text text-anchor="middle" x="587.74" y="-263.26" font-family="sans-serif" font-size="12.00">Partnership</text>
</g>
<!-- HabilitacionVisibilidadProductoContext -->
<g id="node4" class="node">
<title>HabilitacionVisibilidadProductoContext</title>
<polygon fill="none" stroke="black" stroke-width="2" points="342.8,-54.86 340.16,-52.04 338.23,-49.21 337.02,-46.4 336.53,-43.62 336.77,-40.86 337.74,-38.15 339.44,-35.5 341.89,-32.9 345.06,-30.39 348.96,-27.95 353.57,-25.61 358.89,-23.36 364.9,-21.22 371.59,-19.19 378.93,-17.28 386.91,-15.49 395.51,-13.83 404.69,-12.29 414.44,-10.89 424.72,-9.62 435.5,-8.49 446.74,-7.49 458.42,-6.63 470.49,-5.91 482.92,-5.31 495.67,-4.85 508.7,-4.52 521.97,-4.31 535.43,-4.23 549.04,-4.27 562.77,-4.42 576.56,-4.69 590.37,-5.06 604.17,-5.53 617.9,-6.1 631.54,-6.76 645.02,-7.51 658.32,-8.35 671.4,-9.26 684.21,-10.25 696.71,-11.31 708.88,-12.44 720.68,-13.63 732.08,-14.87 743.03,-16.17 753.53,-17.53 763.52,-18.93 773,-20.38 781.94,-21.88 790.31,-23.41 798.1,-24.99 805.29,-26.6 811.85,-28.25 817.79,-29.94 823.09,-31.66 827.73,-33.41 831.72,-35.2 835.04,-37.01 837.69,-38.86 839.67,-40.73 840.98,-42.64 841.63,-44.56 841.61,-46.51 840.93,-48.49 839.59,-50.48 837.62,-52.49 835,-54.52 831.77,-56.55 827.92,-58.6 823.47,-60.65 818.44,-62.71 812.84,-64.76 806.69,-66.8 800,-68.83 792.8,-70.84 785.1,-72.82 776.92,-74.78 768.28,-76.69 759.21,-78.57 749.73,-80.39 739.86,-82.15 729.62,-83.85 719.03,-85.47 708.13,-87.01 696.93,-88.46 685.47,-89.82 673.76,-91.07 661.84,-92.21 649.74,-93.24 637.47,-94.14 625.06,-94.9 612.56,-95.54 599.98,-96.03 587.36,-96.37 574.71,-96.56 562.09,-96.6 549.51,-96.47 537,-96.19 524.61,-95.75 512.35,-95.14 500.26,-94.37 488.37,-93.44 476.71,-92.35 465.31,-91.11 454.22,-89.71 443.44,-88.16 433.03,-86.46 423,-84.63 413.39,-82.67 404.22,-80.58 395.53,-78.37 387.33,-76.06 379.67,-73.64 372.56,-71.14 366.03,-68.56 360.1,-65.91 354.79,-63.21 350.13,-60.45 346.12,-57.67 342.8,-54.86"/>
<text text-anchor="middle" x="592.24" y="-44.7" font-family="sans-serif" font-size="16.00">HabilitacionVisibilidadProductoContext</text>
</g>
<!-- EnriquecimientoDeValoresFaltantesAutomatizadosContext&#45;&gt;HabilitacionVisibilidadProductoContext -->
<g id="edge3" class="edge">
<title>EnriquecimientoDeValoresFaltantesAutomatizadosContext&#45;&gt;HabilitacionVisibilidadProductoContext</title>
<path fill="none" stroke="black" stroke-width="2" d="M448.35,-150.67C472.79,-133.48 501.13,-113.56 526.15,-95.97"/>
<text text-anchor="middle" x="531.74" y="-118.4" font-family="sans-serif" font-size="12.00">Partnership</text>
</g>
<!-- HabilitacionVisibilidadProductoContext&#45;&gt;ValidacionDeDatosContext -->
<g id="edge4" class="edge">
<title>HabilitacionVisibilidadProductoContext&#45;&gt;ValidacionDeDatosContext</title>
<path fill="none" stroke="black" stroke-width="2" d="M715.39,-86.04C743.02,-100.22 768.95,-119.63 785.24,-146 807.64,-182.24 800.5,-202.08 785.24,-241.86 778.13,-260.42 765.62,-277.65 752.28,-292.28"/>
<text text-anchor="middle" x="834.74" y="-190.83" font-family="sans-serif" font-size="12.00">Partnership</text>
</g>
<!-- AplicacionReglasNegocioPorPaisContext -->
<g id="node5" class="node">
<title>AplicacionReglasNegocioPorPaisContext</title>
<polygon fill="none" stroke="black" stroke-width="2" points="1361.98,-469.92 1368,-467.24 1374.65,-464.62 1381.9,-462.07 1389.74,-459.61 1398.12,-457.24 1407.03,-454.97 1416.43,-452.81 1426.29,-450.77 1436.59,-448.86 1447.29,-447.08 1458.36,-445.45 1469.76,-443.96 1481.47,-442.62 1493.45,-441.44 1505.67,-440.42 1518.1,-439.56 1530.69,-438.86 1543.43,-438.33 1556.28,-437.96 1569.21,-437.75 1582.18,-437.71 1595.16,-437.82 1608.13,-438.09 1621.04,-438.51 1633.89,-439.08 1646.62,-439.78 1659.22,-440.63 1671.66,-441.61 1683.91,-442.71 1695.93,-443.92 1707.72,-445.25 1719.23,-446.68 1730.45,-448.2 1741.35,-449.82 1751.9,-451.51 1762.09,-453.27 1771.88,-455.1 1781.26,-456.98 1790.21,-458.91 1798.69,-460.89 1806.7,-462.89 1814.22,-464.93 1821.21,-466.99 1827.67,-469.07 1833.58,-471.15 1838.92,-473.24 1843.67,-475.33 1847.82,-477.41 1851.35,-479.49 1854.26,-481.55 1856.53,-483.6 1858.15,-485.63 1859.11,-487.63 1859.4,-489.62 1859.01,-491.57 1857.95,-493.5 1856.21,-495.4 1853.78,-497.26 1850.67,-499.1 1846.88,-500.9 1842.41,-502.67 1837.27,-504.4 1831.46,-506.09 1825.01,-507.74 1817.91,-509.36 1810.18,-510.93 1801.84,-512.47 1792.91,-513.96 1783.4,-515.4 1773.35,-516.79 1762.77,-518.14 1751.7,-519.43 1740.15,-520.67 1728.17,-521.85 1715.79,-522.97 1703.03,-524.03 1689.94,-525.01 1676.56,-525.93 1662.92,-526.77 1649.06,-527.52 1635.03,-528.19 1620.87,-528.78 1606.62,-529.26 1592.32,-529.65 1578.03,-529.94 1563.79,-530.12 1549.64,-530.19 1535.62,-530.15 1521.79,-529.98 1508.18,-529.69 1494.85,-529.28 1481.82,-528.74 1469.16,-528.07 1456.88,-527.27 1445.05,-526.34 1433.68,-525.27 1422.83,-524.07 1412.52,-522.74 1402.78,-521.27 1393.65,-519.68 1385.15,-517.96 1377.3,-516.11 1370.14,-514.15 1363.68,-512.08 1357.94,-509.9 1352.93,-507.61 1348.67,-505.23 1345.17,-502.77 1342.42,-500.22 1340.45,-497.61 1339.24,-494.94 1338.8,-492.22 1339.13,-489.45 1340.21,-486.66 1342.04,-483.85 1344.61,-481.03 1347.91,-478.22 1351.91,-475.42 1356.61,-472.65 1361.98,-469.92"/>
<text text-anchor="middle" x="1603.24" y="-482.31" font-family="sans-serif" font-size="16.00">AplicacionReglasNegocioPorPaisContext</text>
</g>
<!-- CapturaInformacionCatastralYPlanosPullContext -->
<g id="node6" class="node">
<title>CapturaInformacionCatastralYPlanosPullContext</title>
<polygon fill="none" stroke="black" stroke-width="2" points="1199.6,-228.1 1183.84,-226.35 1168.7,-224.52 1154.25,-222.6 1140.55,-220.62 1127.65,-218.58 1115.61,-216.48 1104.48,-214.34 1094.31,-212.15 1085.14,-209.94 1077,-207.69 1069.93,-205.43 1063.95,-203.16 1059.09,-200.88 1055.35,-198.61 1052.76,-196.34 1051.31,-194.09 1051.01,-191.85 1051.84,-189.64 1053.8,-187.46 1056.87,-185.32 1061.03,-183.22 1066.24,-181.16 1072.49,-179.14 1079.72,-177.18 1087.91,-175.28 1097.01,-173.43 1106.96,-171.65 1117.73,-169.93 1129.26,-168.27 1141.49,-166.69 1154.37,-165.18 1167.84,-163.74 1181.84,-162.37 1196.31,-161.09 1211.18,-159.88 1226.41,-158.75 1241.93,-157.7 1257.68,-156.74 1273.61,-155.86 1289.66,-155.07 1305.78,-154.36 1321.92,-153.75 1338.02,-153.22 1354.04,-152.78 1369.94,-152.44 1385.68,-152.19 1401.21,-152.03 1416.5,-151.97 1431.53,-152 1446.25,-152.14 1460.65,-152.37 1474.7,-152.7 1488.37,-153.13 1501.66,-153.66 1514.53,-154.29 1526.99,-155.02 1539.02,-155.86 1550.6,-156.79 1561.73,-157.83 1572.4,-158.96 1582.61,-160.2 1592.35,-161.53 1601.62,-162.96 1610.4,-164.49 1618.71,-166.1 1626.53,-167.81 1633.86,-169.6 1640.69,-171.47 1647.02,-173.42 1652.85,-175.45 1658.17,-177.55 1662.97,-179.71 1667.24,-181.93 1670.97,-184.21 1674.16,-186.53 1676.79,-188.89 1678.85,-191.29 1680.32,-193.72 1681.2,-196.16 1681.47,-198.61 1681.11,-201.07 1680.11,-203.52 1678.46,-205.96 1676.14,-208.38 1673.14,-210.77 1669.44,-213.12 1665.04,-215.42 1659.92,-217.66 1654.06,-219.85 1647.48,-221.96 1640.15,-223.99 1632.08,-225.93 1623.27,-227.78 1613.72,-229.52 1603.44,-231.16 1592.43,-232.68 1580.71,-234.08 1568.29,-235.35 1555.2,-236.49 1541.46,-237.5 1527.09,-238.37 1512.14,-239.1 1496.63,-239.68 1480.61,-240.12 1464.11,-240.41 1447.2,-240.55 1429.91,-240.54 1412.31,-240.39 1394.45,-240.09 1376.39,-239.64 1358.19,-239.06 1339.92,-238.34 1321.66,-237.48 1303.46,-236.49 1285.39,-235.38 1267.53,-234.14 1249.96,-232.79 1232.73,-231.33 1215.92,-229.76 1199.6,-228.1"/>
<text text-anchor="middle" x="1390.24" y="-190.13" font-family="sans-serif" font-size="16.00">CapturaInformacionCatastralYPlanosPullContext</text>
</g>
<!-- RecoleccionInformacionManualContext -->
<g id="node7" class="node">
<title>RecoleccionInformacionManualContext</title>
<polygon fill="none" stroke="black" stroke-width="2" points="2476.56,-79.91 2464.88,-81.95 2452.79,-83.89 2440.33,-85.72 2427.54,-87.43 2414.48,-89.02 2401.2,-90.49 2387.73,-91.81 2374.13,-93 2360.45,-94.04 2346.72,-94.93 2333,-95.66 2319.32,-96.23 2305.73,-96.65 2292.26,-96.91 2278.95,-97 2265.84,-96.93 2252.95,-96.7 2240.33,-96.31 2227.99,-95.76 2215.97,-95.06 2204.28,-94.21 2192.96,-93.21 2182.02,-92.08 2171.47,-90.8 2161.34,-89.4 2151.64,-87.88 2142.38,-86.23 2133.57,-84.49 2125.23,-82.64 2117.35,-80.7 2109.95,-78.67 2103.03,-76.57 2096.6,-74.41 2090.66,-72.18 2085.21,-69.91 2080.26,-67.6 2075.82,-65.25 2071.87,-62.88 2068.43,-60.5 2065.49,-58.11 2063.06,-55.72 2061.15,-53.34 2059.74,-50.98 2058.85,-48.64 2058.48,-46.32 2058.63,-44.04 2059.3,-41.81 2060.49,-39.61 2062.21,-37.47 2064.47,-35.39 2067.25,-33.36 2070.58,-31.39 2074.44,-29.49 2078.84,-27.66 2083.77,-25.9 2089.25,-24.21 2095.27,-22.59 2101.82,-21.05 2108.91,-19.59 2116.53,-18.2 2124.67,-16.9 2133.32,-15.67 2142.48,-14.52 2152.14,-13.45 2162.27,-12.46 2172.87,-11.55 2183.92,-10.73 2195.39,-9.98 2207.27,-9.31 2219.52,-8.73 2232.13,-8.23 2245.06,-7.81 2258.27,-7.47 2271.74,-7.21 2285.43,-7.04 2299.29,-6.96 2313.3,-6.95 2327.39,-7.04 2341.54,-7.21 2355.68,-7.48 2369.79,-7.83 2383.8,-8.27 2397.66,-8.8 2411.34,-9.43 2424.77,-10.15 2437.91,-10.97 2450.71,-11.88 2463.11,-12.89 2475.07,-13.99 2486.54,-15.19 2497.48,-16.48 2507.83,-17.87 2517.57,-19.36 2526.64,-20.93 2535.01,-22.6 2542.64,-24.36 2549.51,-26.21 2555.58,-28.14 2560.83,-30.15 2565.24,-32.23 2568.78,-34.39 2571.45,-36.62 2573.23,-38.9 2574.12,-41.24 2574.12,-43.64 2573.22,-46.07 2571.43,-48.54 2568.77,-51.03 2565.24,-53.55 2560.86,-56.07 2555.65,-58.6 2549.64,-61.12 2542.86,-63.63 2535.33,-66.1 2527.09,-68.55 2518.17,-70.95 2508.62,-73.29 2498.47,-75.57 2487.77,-77.78 2476.56,-79.91"/>
<text text-anchor="middle" x="2299.24" y="-44.7" font-family="sans-serif" font-size="16.00">RecoleccionInformacionManualContext</text>
</g>
<!-- CapturaInformacionCatastralYPlanosPullContext&#45;&gt;RecoleccionInformacionManualContext -->
<g id="edge5" class="edge">
<title>CapturaInformacionCatastralYPlanosPullContext&#45;&gt;RecoleccionInformacionManualContext</title>
<path fill="none" stroke="black" stroke-width="2" d="M1590.85,-161.27C1746.14,-136.77 1959.63,-103.09 2111.56,-79.11"/>
<text text-anchor="middle" x="1946.74" y="-118.4" font-family="sans-serif" font-size="12.00"> &#160;&#160;&#160;&#160;&#160;&#160;&#160;&#160;&#160;&#160;&#160;&#160;&#160;&#160;&#160;&#160;&#160;&#160;&#160;&#160;&#160;&#160;&#160;&#160;&#160;&#160;&#160;&#160;&#160;&#160;&#160;&#160;&#160;&#160;&#160;&#160;&#160;&#160;&#160;</text>
<polygon fill="white" stroke="transparent" points="2088.56,-69.11 2088.56,-88.11 2104.56,-88.11 2104.56,-69.11 2088.56,-69.11"/>
<polyline fill="none" stroke="black" points="2104.56,-69.11 2104.56,-88.11 "/>
<text text-anchor="start" x="2091.56" y="-75.51" font-family="sans-serif" font-size="12.00">D</text>
<polygon fill="white" stroke="transparent" points="2104.56,-69.11 2104.56,-88.11 2134.56,-88.11 2134.56,-69.11 2104.56,-69.11"/>
<polygon fill="none" stroke="black" points="2104.56,-69.11 2104.56,-88.11 2134.56,-88.11 2134.56,-69.11 2104.56,-69.11"/>
<text text-anchor="start" x="2107.56" y="-75.51" font-family="sans-serif" font-size="12.00">ACL</text>
<polygon fill="white" stroke="transparent" points="1583.85,-152.27 1583.85,-169.27 1597.85,-169.27 1597.85,-152.27 1583.85,-152.27"/>
<text text-anchor="start" x="1585.85" y="-157.67" font-family="sans-serif" font-size="12.00">U</text>
</g>
<!-- CapturaInformacionCatastralYPlanosPushContext -->
<g id="node8" class="node">
<title>CapturaInformacionCatastralYPlanosPushContext</title>
<polygon fill="none" stroke="black" stroke-width="2" points="1635.31,-21.12 1648.22,-23.35 1660.37,-25.65 1671.71,-28 1682.19,-30.39 1691.77,-32.82 1700.41,-35.27 1708.06,-37.74 1714.7,-40.21 1720.29,-42.69 1724.8,-45.16 1728.22,-47.61 1730.53,-50.04 1731.73,-52.43 1731.79,-54.79 1730.74,-57.1 1728.56,-59.36 1725.28,-61.57 1720.89,-63.71 1715.44,-65.79 1708.93,-67.79 1701.41,-69.73 1692.9,-71.58 1683.44,-73.36 1673.07,-75.05 1661.84,-76.65 1649.8,-78.17 1637,-79.6 1623.49,-80.94 1609.34,-82.19 1594.59,-83.35 1579.32,-84.42 1563.57,-85.39 1547.42,-86.28 1530.92,-87.07 1514.14,-87.78 1497.14,-88.39 1479.98,-88.91 1462.71,-89.35 1445.41,-89.69 1428.13,-89.95 1410.92,-90.12 1393.83,-90.2 1376.93,-90.19 1360.24,-90.1 1343.83,-89.92 1327.73,-89.66 1311.99,-89.31 1296.63,-88.87 1281.7,-88.35 1267.23,-87.74 1253.24,-87.05 1239.76,-86.26 1226.81,-85.4 1214.41,-84.44 1202.58,-83.4 1191.34,-82.28 1180.68,-81.07 1170.63,-79.77 1161.19,-78.39 1152.37,-76.93 1144.18,-75.38 1136.6,-73.76 1129.66,-72.05 1123.34,-70.27 1117.65,-68.41 1112.59,-66.48 1108.16,-64.49 1104.36,-62.42 1101.18,-60.3 1098.62,-58.12 1096.69,-55.88 1095.38,-53.6 1094.69,-51.28 1094.62,-48.92 1095.17,-46.54 1096.35,-44.13 1098.15,-41.71 1100.57,-39.28 1103.62,-36.85 1107.29,-34.43 1111.6,-32.03 1116.53,-29.65 1122.1,-27.31 1128.3,-25.01 1135.13,-22.76 1142.59,-20.57 1150.68,-18.45 1159.4,-16.41 1168.74,-14.46 1178.7,-12.6 1189.27,-10.84 1200.44,-9.2 1212.19,-7.67 1224.52,-6.27 1237.41,-4.99 1250.83,-3.86 1264.78,-2.86 1279.21,-2.01 1294.1,-1.32 1309.43,-0.77 1325.15,-0.39 1341.23,-0.16 1357.64,-0.09 1374.32,-0.18 1391.24,-0.43 1408.34,-0.84 1425.57,-1.41 1442.88,-2.14 1460.22,-3.01 1477.52,-4.03 1494.73,-5.2 1511.79,-6.5 1528.63,-7.94 1545.2,-9.5 1561.42,-11.19 1577.25,-12.98 1592.61,-14.88 1607.45,-16.87 1621.7,-18.96 1635.31,-21.12"/>
<text text-anchor="middle" x="1390.24" y="-44.7" font-family="sans-serif" font-size="16.00">CapturaInformacionCatastralYPlanosPushContext</text>
</g>
<!-- CapturaInformacionCatastralYPlanosPullContext&#45;&gt;CapturaInformacionCatastralYPlanosPushContext -->
<g id="edge6" class="edge">
<title>CapturaInformacionCatastralYPlanosPullContext&#45;&gt;CapturaInformacionCatastralYPlanosPushContext</title>
<path fill="none" stroke="black" stroke-width="2" d="M1390.24,-151.83C1390.24,-132.62 1390.24,-109.81 1390.24,-90.61"/>
<text text-anchor="middle" x="1432.24" y="-118.4" font-family="sans-serif" font-size="12.00">Shared Kernel</text>
</g>
<!-- CapturaInformacionContractualPullContext -->
<g id="node9" class="node">
<title>CapturaInformacionContractualPullContext</title>
<polygon fill="none" stroke="black" stroke-width="2" points="3589.03,-228.8 3574.83,-230.57 3560.26,-232.24 3545.37,-233.79 3530.22,-235.22 3514.86,-236.52 3499.36,-237.69 3483.77,-238.72 3468.15,-239.61 3452.55,-240.35 3437.01,-240.94 3421.6,-241.38 3406.36,-241.66 3391.33,-241.79 3376.56,-241.76 3362.08,-241.57 3347.95,-241.22 3334.18,-240.72 3320.82,-240.07 3307.88,-239.27 3295.41,-238.32 3283.42,-237.23 3271.93,-236.01 3260.96,-234.65 3250.53,-233.16 3240.64,-231.56 3231.31,-229.84 3222.55,-228.02 3214.36,-226.1 3206.75,-224.09 3199.71,-222 3193.26,-219.84 3187.38,-217.61 3182.08,-215.33 3177.36,-213 3173.21,-210.64 3169.63,-208.24 3166.62,-205.82 3164.16,-203.39 3162.26,-200.96 3160.92,-198.53 3160.13,-196.11 3159.88,-193.71 3160.17,-191.34 3161,-189 3162.37,-186.7 3164.28,-184.44 3166.72,-182.24 3169.7,-180.09 3173.2,-178 3177.24,-175.98 3181.81,-174.03 3186.92,-172.15 3192.55,-170.35 3198.72,-168.63 3205.41,-166.98 3212.64,-165.43 3220.39,-163.95 3228.66,-162.56 3237.45,-161.26 3246.76,-160.05 3256.57,-158.93 3266.88,-157.89 3277.67,-156.95 3288.94,-156.09 3300.67,-155.32 3312.83,-154.65 3325.42,-154.06 3338.41,-153.56 3351.77,-153.15 3365.48,-152.83 3379.51,-152.6 3393.82,-152.45 3408.38,-152.4 3423.15,-152.43 3438.09,-152.55 3453.16,-152.76 3468.32,-153.05 3483.5,-153.43 3498.68,-153.9 3513.79,-154.46 3528.78,-155.11 3543.6,-155.84 3558.2,-156.66 3572.51,-157.57 3586.5,-158.57 3600.09,-159.65 3613.24,-160.83 3625.89,-162.09 3637.98,-163.43 3649.48,-164.86 3660.32,-166.37 3670.46,-167.97 3679.85,-169.65 3688.46,-171.4 3696.24,-173.23 3703.15,-175.14 3709.16,-177.11 3714.25,-179.15 3718.39,-181.25 3721.56,-183.41 3723.74,-185.63 3724.92,-187.89 3725.1,-190.19 3724.26,-192.53 3722.43,-194.9 3719.59,-197.29 3715.76,-199.7 3710.96,-202.12 3705.21,-204.54 3698.54,-206.95 3690.97,-209.34 3682.53,-211.72 3673.27,-214.05 3663.22,-216.35 3652.43,-218.6 3640.94,-220.79 3628.8,-222.91 3616.07,-224.96 3602.79,-226.93 3589.03,-228.8"/>
<text text-anchor="middle" x="3421.24" y="-190.13" font-family="sans-serif" font-size="16.00">CapturaInformacionContractualPullContext</text>
</g>
<!-- CapturaInformacionContractualPullContext&#45;&gt;RecoleccionInformacionManualContext -->
<g id="edge7" class="edge">
<title>CapturaInformacionContractualPullContext&#45;&gt;RecoleccionInformacionManualContext</title>
<path fill="none" stroke="black" stroke-width="2" d="M3247.9,-159.88C3157.43,-143.85 3044.73,-125.77 2943.24,-115 2783.94,-98.08 2742.51,-114.24 2583.24,-97 2546.22,-92.99 2506.69,-87.29 2469.25,-81.23"/>
<text text-anchor="middle" x="3109.74" y="-118.4" font-family="sans-serif" font-size="12.00"> &#160;&#160;&#160;&#160;&#160;&#160;&#160;&#160;&#160;&#160;&#160;&#160;&#160;&#160;&#160;&#160;&#160;&#160;&#160;&#160;&#160;&#160;&#160;&#160;&#160;&#160;&#160;&#160;&#160;&#160;&#160;&#160;&#160;&#160;&#160;&#160;&#160;&#160;&#160;</text>
<polygon fill="white" stroke="transparent" points="2446.25,-71.23 2446.25,-90.23 2462.25,-90.23 2462.25,-71.23 2446.25,-71.23"/>
<polyline fill="none" stroke="black" points="2462.25,-71.23 2462.25,-90.23 "/>
<text text-anchor="start" x="2449.25" y="-77.63" font-family="sans-serif" font-size="12.00">D</text>
<polygon fill="white" stroke="transparent" points="2462.25,-71.23 2462.25,-90.23 2492.25,-90.23 2492.25,-71.23 2462.25,-71.23"/>
<polygon fill="none" stroke="black" points="2462.25,-71.23 2462.25,-90.23 2492.25,-90.23 2492.25,-71.23 2462.25,-71.23"/>
<text text-anchor="start" x="2465.25" y="-77.63" font-family="sans-serif" font-size="12.00">ACL</text>
<polygon fill="white" stroke="transparent" points="3240.9,-150.88 3240.9,-167.88 3254.9,-167.88 3254.9,-150.88 3240.9,-150.88"/>
<text text-anchor="start" x="3242.9" y="-156.28" font-family="sans-serif" font-size="12.00">U</text>
</g>
<!-- CapturaInformacionContractualPushContext -->
<g id="node10" class="node">
<title>CapturaInformacionContractualPushContext</title>
<polygon fill="none" stroke="black" stroke-width="2" points="3262.84,-14.88 3276.76,-12.98 3291.1,-11.19 3305.81,-9.5 3320.83,-7.94 3336.09,-6.5 3351.55,-5.2 3367.15,-4.03 3382.83,-3.01 3398.54,-2.14 3414.23,-1.41 3429.85,-0.84 3445.34,-0.43 3460.67,-0.18 3475.79,-0.09 3490.66,-0.16 3505.24,-0.39 3519.49,-0.77 3533.38,-1.32 3546.88,-2.01 3559.96,-2.86 3572.59,-3.86 3584.76,-4.99 3596.44,-6.27 3607.61,-7.67 3618.27,-9.2 3628.39,-10.84 3637.97,-12.6 3646.99,-14.46 3655.46,-16.41 3663.36,-18.45 3670.69,-20.57 3677.46,-22.76 3683.65,-25.01 3689.26,-27.31 3694.31,-29.65 3698.78,-32.03 3702.68,-34.43 3706.01,-36.85 3708.78,-39.28 3710.97,-41.71 3712.6,-44.13 3713.67,-46.54 3714.17,-48.92 3714.11,-51.28 3713.48,-53.6 3712.3,-55.88 3710.54,-58.12 3708.23,-60.3 3705.34,-62.42 3701.89,-64.49 3697.88,-66.48 3693.29,-68.41 3688.14,-70.27 3682.41,-72.05 3676.12,-73.76 3669.26,-75.38 3661.83,-76.93 3653.83,-78.39 3645.28,-79.77 3636.17,-81.07 3626.51,-82.28 3616.32,-83.4 3605.6,-84.44 3594.36,-85.4 3582.63,-86.26 3570.41,-87.05 3557.73,-87.74 3544.61,-88.35 3531.08,-88.87 3517.17,-89.31 3502.9,-89.66 3488.31,-89.92 3473.43,-90.1 3458.31,-90.19 3442.99,-90.2 3427.51,-90.12 3411.91,-89.95 3396.24,-89.69 3380.56,-89.35 3364.92,-88.91 3349.37,-88.39 3333.96,-87.78 3318.75,-87.07 3303.8,-86.28 3289.16,-85.39 3274.89,-84.42 3261.04,-83.35 3247.68,-82.19 3234.85,-80.94 3222.61,-79.6 3211.01,-78.17 3200.1,-76.65 3189.92,-75.05 3180.52,-73.36 3171.95,-71.58 3164.24,-69.73 3157.42,-67.79 3151.52,-65.79 3146.58,-63.71 3142.61,-61.57 3139.63,-59.36 3137.66,-57.1 3136.7,-54.79 3136.76,-52.43 3137.84,-50.04 3139.94,-47.61 3143.04,-45.16 3147.13,-42.69 3152.19,-40.21 3158.2,-37.74 3165.14,-35.27 3172.97,-32.82 3181.65,-30.39 3191.15,-28 3201.43,-25.65 3212.45,-23.35 3224.14,-21.12 3236.47,-18.96 3249.39,-16.87 3262.84,-14.88"/>
<text text-anchor="middle" x="3446.24" y="-44.7" font-family="sans-serif" font-size="16.00">CapturaInformacionContractualPushContext</text>
</g>
<!-- CapturaInformacionContractualPullContext&#45;&gt;CapturaInformacionContractualPushContext -->
<g id="edge8" class="edge">
<title>CapturaInformacionContractualPullContext&#45;&gt;CapturaInformacionContractualPushContext</title>
<path fill="none" stroke="black" stroke-width="2" d="M3428.34,-152.21C3431.72,-132.83 3435.75,-109.71 3439.13,-90.32"/>
<text text-anchor="middle" x="3476.24" y="-118.4" font-family="sans-serif" font-size="12.00">Shared Kernel</text>
</g>
<!-- CapturaInformacionDeCompaniasPullContext -->
<g id="node11" class="node">
<title>CapturaInformacionDeCompaniasPullContext</title>
<polygon fill="none" stroke="black" stroke-width="2" points="2660.77,-368.08 2648.68,-370.27 2636.05,-372.38 2622.93,-374.38 2609.39,-376.27 2595.46,-378.04 2581.2,-379.69 2566.66,-381.21 2551.89,-382.59 2536.93,-383.82 2521.85,-384.91 2506.67,-385.84 2491.46,-386.62 2476.25,-387.24 2461.09,-387.69 2446.02,-387.98 2431.08,-388.11 2416.3,-388.08 2401.73,-387.88 2387.4,-387.52 2373.33,-387.01 2359.57,-386.34 2346.13,-385.52 2333.04,-384.56 2320.32,-383.46 2308.01,-382.22 2296.11,-380.85 2284.64,-379.37 2273.63,-377.76 2263.08,-376.06 2253.02,-374.25 2243.45,-372.36 2234.38,-370.38 2225.83,-368.33 2217.8,-366.21 2210.31,-364.04 2203.35,-361.82 2196.95,-359.57 2191.11,-357.28 2185.83,-354.97 2181.12,-352.65 2176.99,-350.31 2173.45,-347.98 2170.49,-345.66 2168.14,-343.35 2166.39,-341.07 2165.25,-338.81 2164.72,-336.58 2164.82,-334.39 2165.55,-332.24 2166.92,-330.14 2168.92,-328.09 2171.57,-326.09 2174.86,-324.15 2178.81,-322.26 2183.41,-320.44 2188.66,-318.69 2194.58,-316.99 2201.14,-315.37 2208.35,-313.81 2216.21,-312.32 2224.71,-310.91 2233.85,-309.56 2243.6,-308.28 2253.96,-307.08 2264.91,-305.95 2276.43,-304.89 2288.51,-303.9 2301.12,-302.99 2314.23,-302.15 2327.82,-301.39 2341.86,-300.7 2356.31,-300.09 2371.13,-299.56 2386.29,-299.1 2401.75,-298.73 2417.46,-298.43 2433.37,-298.22 2449.43,-298.09 2465.61,-298.05 2481.84,-298.1 2498.06,-298.24 2514.24,-298.47 2530.31,-298.79 2546.21,-299.2 2561.88,-299.72 2577.28,-300.33 2592.35,-301.04 2607.02,-301.85 2621.25,-302.76 2634.97,-303.78 2648.14,-304.9 2660.71,-306.12 2672.62,-307.45 2683.83,-308.87 2694.3,-310.4 2703.99,-312.03 2712.85,-313.76 2720.86,-315.58 2727.98,-317.49 2734.18,-319.49 2739.45,-321.58 2743.76,-323.74 2747.1,-325.98 2749.45,-328.29 2750.82,-330.66 2751.2,-333.08 2750.58,-335.56 2748.99,-338.07 2746.42,-340.62 2742.89,-343.19 2738.43,-345.77 2733.05,-348.36 2726.77,-350.94 2719.64,-353.51 2711.68,-356.06 2702.92,-358.57 2693.41,-361.04 2683.19,-363.45 2672.29,-365.8 2660.77,-368.08"/>
<text text-anchor="middle" x="2441.24" y="-335.81" font-family="sans-serif" font-size="16.00">CapturaInformacionDeCompaniasPullContext</text>
</g>
<!-- CapturaInformacionDeCompaniasPullContext&#45;&gt;CapturaInformacionCatastralYPlanosPullContext -->
<g id="edge13" class="edge">
<title>CapturaInformacionDeCompaniasPullContext&#45;&gt;CapturaInformacionCatastralYPlanosPullContext</title>
<path fill="none" stroke="black" stroke-width="2" d="M2231.08,-309.88C2056.31,-285.99 1807.7,-252 1626.15,-227.18"/>
<text text-anchor="middle" x="2022.74" y="-263.26" font-family="sans-serif" font-size="12.00"> &#160;&#160;&#160;&#160;&#160;&#160;&#160;&#160;&#160;&#160;&#160;&#160;&#160;&#160;&#160;&#160;&#160;&#160;&#160;&#160;&#160;&#160;&#160;&#160;&#160;&#160;&#160;&#160;&#160;&#160;&#160;&#160;&#160;&#160;&#160;&#160;&#160;&#160;&#160;</text>
<polygon fill="white" stroke="transparent" points="1619.15,-218.18 1619.15,-235.18 1633.15,-235.18 1633.15,-218.18 1619.15,-218.18"/>
<text text-anchor="start" x="1621.15" y="-223.58" font-family="sans-serif" font-size="12.00">D</text>
<polygon fill="white" stroke="transparent" points="2196.08,-299.88 2196.08,-318.88 2212.08,-318.88 2212.08,-299.88 2196.08,-299.88"/>
<polyline fill="none" stroke="black" points="2212.08,-299.88 2212.08,-318.88 "/>
<text text-anchor="start" x="2199.08" y="-306.28" font-family="sans-serif" font-size="12.00">U</text>
<polygon fill="white" stroke="transparent" points="2212.08,-299.88 2212.08,-318.88 2267.08,-318.88 2267.08,-299.88 2212.08,-299.88"/>
<polygon fill="none" stroke="black" points="2212.08,-299.88 2212.08,-318.88 2267.08,-318.88 2267.08,-299.88 2212.08,-299.88"/>
<text text-anchor="start" x="2215.08" y="-306.28" font-family="sans-serif" font-size="12.00">OHS, PL</text>
</g>
<!-- CapturaInformacionDeCompaniasPullContext&#45;&gt;RecoleccionInformacionManualContext -->
<g id="edge9" class="edge">
<title>CapturaInformacionDeCompaniasPullContext&#45;&gt;RecoleccionInformacionManualContext</title>
<path fill="none" stroke="black" stroke-width="2" d="M2443.74,-297.99C2444.45,-257.08 2440.51,-193.4 2414.24,-146 2403.07,-125.82 2385.87,-108.06 2368.16,-93.46"/>
<text text-anchor="middle" x="2516.74" y="-190.83" font-family="sans-serif" font-size="12.00"> &#160;&#160;&#160;&#160;&#160;&#160;&#160;&#160;&#160;&#160;&#160;&#160;&#160;&#160;&#160;&#160;&#160;&#160;&#160;&#160;&#160;&#160;&#160;&#160;&#160;&#160;&#160;&#160;&#160;&#160;&#160;&#160;&#160;&#160;&#160;&#160;&#160;&#160;&#160;</text>
<polygon fill="white" stroke="transparent" points="2345.16,-83.46 2345.16,-102.46 2361.16,-102.46 2361.16,-83.46 2345.16,-83.46"/>
<polyline fill="none" stroke="black" points="2361.16,-83.46 2361.16,-102.46 "/>
<text text-anchor="start" x="2348.16" y="-89.86" font-family="sans-serif" font-size="12.00">D</text>
<polygon fill="white" stroke="transparent" points="2361.16,-83.46 2361.16,-102.46 2391.16,-102.46 2391.16,-83.46 2361.16,-83.46"/>
<polygon fill="none" stroke="black" points="2361.16,-83.46 2361.16,-102.46 2391.16,-102.46 2391.16,-83.46 2361.16,-83.46"/>
<text text-anchor="start" x="2364.16" y="-89.86" font-family="sans-serif" font-size="12.00">ACL</text>
<polygon fill="white" stroke="transparent" points="2436.74,-288.99 2436.74,-305.99 2450.74,-305.99 2450.74,-288.99 2436.74,-288.99"/>
<text text-anchor="start" x="2438.74" y="-294.39" font-family="sans-serif" font-size="12.00">U</text>
</g>
<!-- CapturaInformacionDeCompaniasPullContext&#45;&gt;CapturaInformacionContractualPullContext -->
<g id="edge10" class="edge">
<title>CapturaInformacionDeCompaniasPullContext&#45;&gt;CapturaInformacionContractualPullContext</title>
<path fill="none" stroke="black" stroke-width="2" d="M2664.72,-306.55C2794.51,-287.86 2961.15,-263.72 3109.24,-241.86 3143.25,-236.84 3179.33,-231.46 3214.42,-226.2"/>
<text text-anchor="middle" x="3056.74" y="-263.26" font-family="sans-serif" font-size="12.00"> &#160;&#160;&#160;&#160;&#160;&#160;&#160;&#160;&#160;&#160;&#160;&#160;&#160;&#160;&#160;&#160;&#160;&#160;&#160;&#160;&#160;&#160;&#160;&#160;&#160;&#160;&#160;&#160;&#160;&#160;&#160;&#160;&#160;&#160;&#160;&#160;&#160;&#160;&#160;</text>
<polygon fill="white" stroke="transparent" points="3207.42,-217.2 3207.42,-234.2 3221.42,-234.2 3221.42,-217.2 3207.42,-217.2"/>
<text text-anchor="start" x="3209.42" y="-222.6" font-family="sans-serif" font-size="12.00">D</text>
<polygon fill="white" stroke="transparent" points="2629.72,-296.55 2629.72,-315.55 2645.72,-315.55 2645.72,-296.55 2629.72,-296.55"/>
<polyline fill="none" stroke="black" points="2645.72,-296.55 2645.72,-315.55 "/>
<text text-anchor="start" x="2632.72" y="-302.95" font-family="sans-serif" font-size="12.00">U</text>
<polygon fill="white" stroke="transparent" points="2645.72,-296.55 2645.72,-315.55 2700.72,-315.55 2700.72,-296.55 2645.72,-296.55"/>
<polygon fill="none" stroke="black" points="2645.72,-296.55 2645.72,-315.55 2700.72,-315.55 2700.72,-296.55 2645.72,-296.55"/>
<text text-anchor="start" x="2648.72" y="-302.95" font-family="sans-serif" font-size="12.00">OHS, PL</text>
</g>
<!-- CapturaInformacionGISPullContext -->
<g id="node12" class="node">
<title>CapturaInformacionGISPullContext</title>
<polygon fill="none" stroke="black" stroke-width="2" points="2828.66,-237.43 2813.73,-237.14 2798.96,-236.73 2784.42,-236.21 2770.16,-235.57 2756.25,-234.81 2742.73,-233.95 2729.66,-232.97 2717.09,-231.89 2705.07,-230.71 2693.63,-229.42 2682.83,-228.04 2672.69,-226.57 2663.25,-225 2654.54,-223.36 2646.57,-221.63 2639.38,-219.83 2632.96,-217.95 2627.35,-216.01 2622.54,-214.02 2618.53,-211.96 2615.33,-209.86 2612.93,-207.72 2611.31,-205.53 2610.48,-203.32 2610.4,-201.08 2611.07,-198.82 2612.46,-196.55 2614.54,-194.27 2617.3,-191.99 2620.7,-189.72 2624.71,-187.45 2629.3,-185.21 2634.44,-182.99 2640.09,-180.79 2646.22,-178.64 2652.8,-176.52 2659.79,-174.46 2667.17,-172.44 2674.89,-170.48 2682.93,-168.59 2691.25,-166.77 2699.83,-165.02 2708.64,-163.34 2717.65,-161.76 2726.84,-160.25 2736.18,-158.85 2745.66,-157.53 2755.25,-156.32 2764.93,-155.2 2774.7,-154.2 2784.53,-153.3 2794.41,-152.51 2804.34,-151.84 2814.29,-151.28 2824.27,-150.84 2834.26,-150.51 2844.26,-150.3 2854.25,-150.22 2864.24,-150.25 2874.21,-150.4 2884.16,-150.68 2894.09,-151.07 2903.98,-151.58 2913.83,-152.2 2923.62,-152.94 2933.35,-153.79 2943.01,-154.76 2952.59,-155.83 2962.07,-157 2971.43,-158.28 2980.66,-159.66 2989.74,-161.13 2998.65,-162.69 3007.36,-164.34 3015.86,-166.07 3024.11,-167.87 3032.1,-169.75 3039.78,-171.7 3047.14,-173.7 3054.14,-175.77 3060.75,-177.88 3066.94,-180.04 3072.67,-182.23 3077.92,-184.46 3082.65,-186.72 3086.83,-188.99 3090.42,-191.28 3093.4,-193.58 3095.73,-195.87 3097.4,-198.16 3098.37,-200.44 3098.63,-202.71 3098.14,-204.94 3096.9,-207.15 3094.89,-209.32 3092.1,-211.45 3088.51,-213.53 3084.13,-215.55 3078.96,-217.52 3072.99,-219.42 3066.24,-221.25 3058.72,-223 3050.44,-224.67 3041.43,-226.26 3031.71,-227.76 3021.31,-229.17 3010.26,-230.48 2998.6,-231.68 2986.37,-232.79 2973.61,-233.79 2960.37,-234.67 2946.7,-235.45 2932.65,-236.11 2918.29,-236.65 2903.66,-237.08 2888.82,-237.39 2873.84,-237.58 2858.78,-237.65 2843.7,-237.6 2828.66,-237.43"/>
<text text-anchor="middle" x="2855.24" y="-190.13" font-family="sans-serif" font-size="16.00">CapturaInformacionGISPullContext</text>
</g>
<!-- CapturaInformacionDeCompaniasPullContext&#45;&gt;CapturaInformacionGISPullContext -->
<g id="edge11" class="edge">
<title>CapturaInformacionDeCompaniasPullContext&#45;&gt;CapturaInformacionGISPullContext</title>
<path fill="none" stroke="black" stroke-width="2" d="M2465.78,-297.77C2476.23,-283.68 2489.64,-269.12 2505.24,-259.86 2507.33,-258.62 2591.82,-242.93 2677.25,-227.29"/>
<text text-anchor="middle" x="2580.74" y="-263.26" font-family="sans-serif" font-size="12.00"> &#160;&#160;&#160;&#160;&#160;&#160;&#160;&#160;&#160;&#160;&#160;&#160;&#160;&#160;&#160;&#160;&#160;&#160;&#160;&#160;&#160;&#160;&#160;&#160;&#160;&#160;&#160;&#160;&#160;&#160;&#160;&#160;&#160;&#160;&#160;&#160;&#160;&#160;&#160;</text>
<polygon fill="white" stroke="transparent" points="2670.25,-218.29 2670.25,-235.29 2684.25,-235.29 2684.25,-218.29 2670.25,-218.29"/>
<text text-anchor="start" x="2672.25" y="-223.69" font-family="sans-serif" font-size="12.00">D</text>
<polygon fill="white" stroke="transparent" points="2430.78,-287.77 2430.78,-306.77 2446.78,-306.77 2446.78,-287.77 2430.78,-287.77"/>
<polyline fill="none" stroke="black" points="2446.78,-287.77 2446.78,-306.77 "/>
<text text-anchor="start" x="2433.78" y="-294.17" font-family="sans-serif" font-size="12.00">U</text>
<polygon fill="white" stroke="transparent" points="2446.78,-287.77 2446.78,-306.77 2501.78,-306.77 2501.78,-287.77 2446.78,-287.77"/>
<polygon fill="none" stroke="black" points="2446.78,-287.77 2446.78,-306.77 2501.78,-306.77 2501.78,-287.77 2446.78,-287.77"/>
<text text-anchor="start" x="2449.78" y="-294.17" font-family="sans-serif" font-size="12.00">OHS, PL</text>
</g>
<!-- CapturaInformacionDeCompaniasPushContext -->
<g id="node14" class="node">
<title>CapturaInformacionDeCompaniasPushContext</title>
<polygon fill="none" stroke="black" stroke-width="2" points="1992.89,-151.83 2011.36,-150.98 2029.95,-150.25 2048.58,-149.65 2067.18,-149.18 2085.68,-148.84 2103.99,-148.63 2122.06,-148.55 2139.83,-148.61 2157.21,-148.8 2174.16,-149.13 2190.62,-149.6 2206.54,-150.21 2221.86,-150.94 2236.55,-151.81 2250.56,-152.81 2263.85,-153.94 2276.4,-155.19 2288.18,-156.55 2299.16,-158.04 2309.34,-159.63 2318.69,-161.33 2327.2,-163.13 2334.88,-165.02 2341.72,-167 2347.72,-169.06 2352.89,-171.19 2357.24,-173.39 2360.79,-175.65 2363.54,-177.96 2365.52,-180.31 2366.74,-182.7 2367.22,-185.11 2367,-187.54 2366.09,-189.99 2364.51,-192.43 2362.29,-194.87 2359.46,-197.3 2356.04,-199.71 2352.05,-202.09 2347.51,-204.44 2342.46,-206.74 2336.91,-209 2330.88,-211.19 2324.39,-213.33 2317.45,-215.4 2310.1,-217.4 2302.33,-219.32 2294.16,-221.15 2285.61,-222.9 2276.69,-224.56 2267.4,-226.12 2257.76,-227.59 2247.77,-228.95 2237.44,-230.21 2226.78,-231.36 2215.79,-232.4 2204.48,-233.34 2192.86,-234.17 2180.93,-234.88 2168.69,-235.48 2156.17,-235.97 2143.37,-236.35 2130.3,-236.62 2116.97,-236.78 2103.4,-236.83 2089.6,-236.77 2075.6,-236.6 2061.42,-236.33 2047.07,-235.95 2032.6,-235.47 2018.02,-234.89 2003.37,-234.21 1988.68,-233.44 1973.99,-232.57 1959.35,-231.61 1944.79,-230.56 1930.36,-229.42 1916.11,-228.2 1902.08,-226.9 1888.33,-225.52 1874.91,-224.06 1861.87,-222.54 1849.27,-220.94 1837.17,-219.27 1825.6,-217.55 1814.65,-215.76 1804.34,-213.92 1794.74,-212.02 1785.91,-210.08 1777.88,-208.09 1770.7,-206.06 1764.43,-203.99 1759.1,-201.9 1754.74,-199.77 1751.39,-197.62 1749.09,-195.44 1747.85,-193.26 1747.7,-191.07 1748.64,-188.87 1750.7,-186.67 1753.88,-184.48 1758.16,-182.3 1763.56,-180.14 1770.05,-178 1777.62,-175.89 1786.24,-173.82 1795.89,-171.79 1806.53,-169.81 1818.12,-167.87 1830.62,-166 1843.98,-164.2 1858.14,-162.46 1873.05,-160.81 1888.65,-159.23 1904.87,-157.75 1921.65,-156.35 1938.91,-155.06 1956.59,-153.87 1974.61,-152.79 1992.89,-151.83"/>
<text text-anchor="middle" x="2076.24" y="-190.13" font-family="sans-serif" font-size="16.00">CapturaInformacionDeCompaniasPushContext</text>
</g>
<!-- CapturaInformacionDeCompaniasPullContext&#45;&gt;CapturaInformacionDeCompaniasPushContext -->
<g id="edge12" class="edge">
<title>CapturaInformacionDeCompaniasPullContext&#45;&gt;CapturaInformacionDeCompaniasPushContext</title>
<path fill="none" stroke="black" stroke-width="2" d="M2344.39,-300.48C2293.17,-280.32 2230.32,-255.58 2178.34,-235.12"/>
<text text-anchor="middle" x="2311.24" y="-263.26" font-family="sans-serif" font-size="12.00">Shared Kernel</text>
</g>
<!-- CapturaInformacionGISPullContext&#45;&gt;RecoleccionInformacionManualContext -->
<g id="edge15" class="edge">
<title>CapturaInformacionGISPullContext&#45;&gt;RecoleccionInformacionManualContext</title>
<path fill="none" stroke="black" stroke-width="2" d="M2727.69,-160.02C2641.92,-137.9 2528.83,-108.72 2440.37,-85.9"/>
<text text-anchor="middle" x="2668.74" y="-118.4" font-family="sans-serif" font-size="12.00"> &#160;&#160;&#160;&#160;&#160;&#160;&#160;&#160;&#160;&#160;&#160;&#160;&#160;&#160;&#160;&#160;&#160;&#160;&#160;&#160;&#160;&#160;&#160;&#160;&#160;&#160;&#160;&#160;&#160;&#160;&#160;&#160;&#160;&#160;&#160;&#160;&#160;&#160;&#160;</text>
<polygon fill="white" stroke="transparent" points="2417.37,-75.9 2417.37,-94.9 2433.37,-94.9 2433.37,-75.9 2417.37,-75.9"/>
<polyline fill="none" stroke="black" points="2433.37,-75.9 2433.37,-94.9 "/>
<text text-anchor="start" x="2420.37" y="-82.3" font-family="sans-serif" font-size="12.00">D</text>
<polygon fill="white" stroke="transparent" points="2433.37,-75.9 2433.37,-94.9 2463.37,-94.9 2463.37,-75.9 2433.37,-75.9"/>
<polygon fill="none" stroke="black" points="2433.37,-75.9 2433.37,-94.9 2463.37,-94.9 2463.37,-75.9 2433.37,-75.9"/>
<text text-anchor="start" x="2436.37" y="-82.3" font-family="sans-serif" font-size="12.00">ACL</text>
<polygon fill="white" stroke="transparent" points="2720.69,-151.02 2720.69,-168.02 2734.69,-168.02 2734.69,-151.02 2720.69,-151.02"/>
<text text-anchor="start" x="2722.69" y="-156.42" font-family="sans-serif" font-size="12.00">U</text>
</g>
<!-- CapturaInformacionGISPushContext -->
<g id="node13" class="node">
<title>CapturaInformacionGISPushContext</title>
<polygon fill="none" stroke="black" stroke-width="2" points="2929.8,-90.36 2915.2,-91.31 2900.47,-92.14 2885.69,-92.84 2870.92,-93.41 2856.2,-93.85 2841.59,-94.16 2827.16,-94.33 2812.95,-94.37 2799.02,-94.26 2785.41,-94.01 2772.16,-93.63 2759.32,-93.11 2746.94,-92.45 2735.03,-91.65 2723.65,-90.72 2712.81,-89.66 2702.54,-88.47 2692.87,-87.15 2683.81,-85.72 2675.38,-84.17 2667.59,-82.51 2660.44,-80.75 2653.95,-78.89 2648.11,-76.93 2642.92,-74.9 2638.39,-72.78 2634.49,-70.59 2631.23,-68.34 2628.6,-66.04 2626.58,-63.69 2625.15,-61.3 2624.31,-58.87 2624.03,-56.43 2624.3,-53.97 2625.1,-51.5 2626.41,-49.04 2628.22,-46.58 2630.5,-44.14 2633.24,-41.73 2636.42,-39.35 2640.03,-37.01 2644.04,-34.72 2648.45,-32.48 2653.24,-30.29 2658.39,-28.18 2663.89,-26.13 2669.74,-24.17 2675.92,-22.28 2682.43,-20.48 2689.25,-18.77 2696.38,-17.15 2703.81,-15.63 2711.54,-14.21 2719.56,-12.89 2727.86,-11.67 2736.45,-10.57 2745.32,-9.57 2754.45,-8.68 2763.85,-7.9 2773.52,-7.23 2783.43,-6.67 2793.6,-6.22 2804,-5.88 2814.62,-5.66 2825.46,-5.54 2836.5,-5.52 2847.72,-5.62 2859.11,-5.82 2870.65,-6.13 2882.31,-6.53 2894.07,-7.04 2905.91,-7.65 2917.8,-8.35 2929.7,-9.15 2941.59,-10.03 2953.43,-11.01 2965.17,-12.08 2976.8,-13.23 2988.26,-14.47 2999.51,-15.78 3010.51,-17.18 3021.22,-18.64 3031.59,-20.18 3041.58,-21.79 3051.15,-23.47 3060.24,-25.2 3068.83,-27 3076.86,-28.85 3084.29,-30.76 3091.08,-32.72 3097.2,-34.72 3102.6,-36.76 3107.26,-38.85 3111.14,-40.96 3114.22,-43.11 3116.47,-45.27 3117.88,-47.46 3118.41,-49.67 3118.07,-51.88 3116.84,-54.1 3114.71,-56.32 3111.7,-58.53 3107.79,-60.73 3103,-62.91 3097.35,-65.07 3090.85,-67.19 3083.52,-69.29 3075.39,-71.33 3066.48,-73.33 3056.85,-75.28 3046.51,-77.16 3035.51,-78.98 3023.9,-80.72 3011.73,-82.39 2999.04,-83.96 2985.9,-85.45 2972.34,-86.84 2958.43,-88.12 2944.24,-89.3 2929.8,-90.36"/>
<text text-anchor="middle" x="2855.24" y="-44.7" font-family="sans-serif" font-size="16.00">CapturaInformacionGISPushContext</text>
</g>
<!-- CapturaInformacionGISPullContext&#45;&gt;CapturaInformacionGISPushContext -->
<g id="edge14" class="edge">
<title>CapturaInformacionGISPullContext&#45;&gt;CapturaInformacionGISPushContext</title>
<path fill="none" stroke="black" stroke-width="2" d="M2855.24,-149.9C2855.24,-132.24 2855.24,-111.8 2855.24,-93.99"/>
<text text-anchor="middle" x="2897.24" y="-118.4" font-family="sans-serif" font-size="12.00">Shared Kernel</text>
</g>
<!-- ConsolidacionYOrganizacionPorPaisContext -->
<g id="node15" class="node">
<title>ConsolidacionYOrganizacionPorPaisContext</title>
<polygon fill="none" stroke="black" stroke-width="2" points="2199.08,-507.54 2189.94,-505.07 2181.54,-502.56 2173.89,-500.01 2167.04,-497.44 2161.02,-494.86 2155.85,-492.27 2151.56,-489.69 2148.17,-487.12 2145.71,-484.57 2144.17,-482.06 2143.58,-479.59 2143.95,-477.16 2145.26,-474.79 2147.52,-472.48 2150.73,-470.24 2154.86,-468.08 2159.92,-465.99 2165.88,-463.99 2172.72,-462.08 2180.41,-460.26 2188.92,-458.53 2198.22,-456.9 2208.27,-455.37 2219.04,-453.95 2230.48,-452.62 2242.55,-451.4 2255.2,-450.28 2268.38,-449.26 2282.04,-448.35 2296.13,-447.54 2310.6,-446.83 2325.39,-446.22 2340.45,-445.7 2355.72,-445.29 2371.14,-444.97 2386.68,-444.74 2402.26,-444.6 2417.85,-444.56 2433.38,-444.6 2448.81,-444.72 2464.09,-444.93 2479.17,-445.23 2494.02,-445.6 2508.57,-446.06 2522.81,-446.59 2536.69,-447.2 2550.17,-447.89 2563.22,-448.65 2575.81,-449.49 2587.92,-450.4 2599.52,-451.39 2610.59,-452.45 2621.11,-453.58 2631.05,-454.79 2640.42,-456.06 2649.19,-457.41 2657.35,-458.83 2664.9,-460.31 2671.83,-461.87 2678.13,-463.5 2683.81,-465.19 2688.85,-466.94 2693.27,-468.76 2697.06,-470.65 2700.23,-472.59 2702.77,-474.59 2704.69,-476.64 2706,-478.74 2706.7,-480.89 2706.8,-483.08 2706.3,-485.31 2705.2,-487.57 2703.52,-489.86 2701.26,-492.16 2698.42,-494.49 2695.02,-496.82 2691.05,-499.15 2686.53,-501.47 2681.46,-503.78 2675.85,-506.07 2669.7,-508.33 2663.02,-510.54 2655.83,-512.72 2648.12,-514.83 2639.91,-516.88 2631.2,-518.86 2622.01,-520.75 2612.34,-522.56 2602.21,-524.27 2591.64,-525.87 2580.63,-527.35 2569.2,-528.72 2557.37,-529.96 2545.16,-531.06 2532.59,-532.03 2519.68,-532.84 2506.46,-533.51 2492.95,-534.03 2479.19,-534.38 2465.2,-534.58 2451.01,-534.61 2436.66,-534.48 2422.19,-534.19 2407.63,-533.74 2393.02,-533.12 2378.41,-532.34 2363.84,-531.41 2349.35,-530.32 2334.99,-529.09 2320.8,-527.71 2306.84,-526.19 2293.14,-524.54 2279.77,-522.77 2266.76,-520.88 2254.17,-518.88 2242.04,-516.77 2230.42,-514.58 2219.36,-512.3 2208.89,-509.95 2199.08,-507.54"/>
<text text-anchor="middle" x="2441.24" y="-482.31" font-family="sans-serif" font-size="16.00">ConsolidacionYOrganizacionPorPaisContext</text>
</g>
<!-- ConsolidacionYOrganizacionPorPaisContext&#45;&gt;CapturaInformacionCatastralYPlanosPullContext -->
<g id="edge17" class="edge">
<title>ConsolidacionYOrganizacionPorPaisContext&#45;&gt;CapturaInformacionCatastralYPlanosPullContext</title>
<path fill="none" stroke="black" stroke-width="2" d="M2286.53,-448.02C2215.31,-430.56 2129.81,-409.07 2053.24,-388.36 1872.83,-339.57 1666.31,-278.48 1532.37,-238.16"/>
<text text-anchor="middle" x="2087.74" y="-336.51" font-family="sans-serif" font-size="12.00">Partnership</text>
</g>
<!-- ConsolidacionYOrganizacionPorPaisContext&#45;&gt;CapturaInformacionContractualPullContext -->
<g id="edge18" class="edge">
<title>ConsolidacionYOrganizacionPorPaisContext&#45;&gt;CapturaInformacionContractualPullContext</title>
<path fill="none" stroke="black" stroke-width="2" d="M2621.23,-453.56C2706.53,-436.99 2809.4,-414.64 2900.24,-388.36 3046.45,-346.06 3210.3,-282.44 3314.53,-239.84"/>
<text text-anchor="middle" x="3212.74" y="-336.51" font-family="sans-serif" font-size="12.00">Partnership</text>
</g>
<!-- ConsolidacionYOrganizacionPorPaisContext&#45;&gt;CapturaInformacionDeCompaniasPullContext -->
<g id="edge16" class="edge">
<title>ConsolidacionYOrganizacionPorPaisContext&#45;&gt;CapturaInformacionDeCompaniasPullContext</title>
<path fill="none" stroke="black" stroke-width="2" d="M2441.24,-444.47C2441.24,-426.94 2441.24,-406.32 2441.24,-388.09"/>
<text text-anchor="middle" x="2475.74" y="-409.76" font-family="sans-serif" font-size="12.00">Partnership</text>
</g>
<!-- ConsolidacionYOrganizacionPorPaisContext&#45;&gt;CapturaInformacionGISPullContext -->
<g id="edge19" class="edge">
<title>ConsolidacionYOrganizacionPorPaisContext&#45;&gt;CapturaInformacionGISPullContext</title>
<path fill="none" stroke="black" stroke-width="2" d="M2622.56,-453.72C2670.55,-439.36 2720.12,-418.53 2760.24,-388.36 2809.29,-351.49 2834.48,-282.47 2846.26,-237.63"/>
<text text-anchor="middle" x="2861.74" y="-336.51" font-family="sans-serif" font-size="12.00">Partnership</text>
</g>
<!-- EnriquecimientoDeDatosContext -->
<g id="node16" class="node">
<title>EnriquecimientoDeDatosContext</title>
<polygon fill="none" stroke="black" stroke-width="2" points="2005.57,-602.8 2015.12,-604.93 2024.16,-607.12 2032.65,-609.37 2040.56,-611.66 2047.84,-614 2054.48,-616.37 2060.44,-618.77 2065.69,-621.18 2070.22,-623.6 2073.99,-626.02 2077,-628.42 2079.24,-630.82 2080.68,-633.19 2081.34,-635.53 2081.2,-637.83 2080.27,-640.09 2078.56,-642.31 2076.06,-644.47 2072.81,-646.57 2068.8,-648.61 2064.07,-650.58 2058.63,-652.49 2052.51,-654.32 2045.74,-656.07 2038.35,-657.75 2030.37,-659.34 2021.84,-660.86 2012.79,-662.29 2003.27,-663.63 1993.32,-664.89 1982.97,-666.06 1972.28,-667.15 1961.27,-668.15 1950.01,-669.06 1938.52,-669.88 1926.86,-670.61 1915.06,-671.26 1903.17,-671.82 1891.23,-672.29 1879.28,-672.67 1867.36,-672.96 1855.5,-673.17 1843.75,-673.29 1832.12,-673.32 1820.67,-673.26 1809.4,-673.12 1798.37,-672.89 1787.58,-672.57 1777.06,-672.16 1766.84,-671.66 1756.94,-671.07 1747.36,-670.39 1738.14,-669.63 1729.27,-668.77 1720.78,-667.83 1712.67,-666.79 1704.95,-665.67 1697.62,-664.46 1690.71,-663.16 1684.2,-661.77 1678.1,-660.29 1672.41,-658.73 1667.14,-657.09 1662.29,-655.37 1657.86,-653.57 1653.84,-651.69 1650.24,-649.74 1647.07,-647.72 1644.31,-645.63 1641.97,-643.48 1640.05,-641.28 1638.54,-639.02 1637.47,-636.72 1636.81,-634.38 1636.58,-632.01 1636.78,-629.61 1637.4,-627.19 1638.46,-624.76 1639.95,-622.33 1641.88,-619.9 1644.25,-617.48 1647.07,-615.08 1650.34,-612.72 1654.05,-610.39 1658.22,-608.1 1662.85,-605.88 1667.93,-603.71 1673.46,-601.62 1679.45,-599.62 1685.9,-597.7 1692.79,-595.88 1700.13,-594.16 1707.91,-592.56 1716.12,-591.07 1724.75,-589.71 1733.79,-588.49 1743.23,-587.4 1753.04,-586.45 1763.22,-585.65 1773.73,-584.99 1784.57,-584.5 1795.69,-584.15 1807.08,-583.96 1818.7,-583.93 1830.53,-584.06 1842.52,-584.34 1854.65,-584.78 1866.88,-585.37 1879.15,-586.11 1891.45,-587 1903.71,-588.03 1915.91,-589.2 1927.99,-590.5 1939.91,-591.93 1951.63,-593.48 1963.1,-595.15 1974.27,-596.92 1985.1,-598.79 1995.55,-600.76 2005.57,-602.8"/>
<text text-anchor="middle" x="1842.24" y="-627.99" font-family="sans-serif" font-size="16.00">EnriquecimientoDeDatosContext</text>
</g>
<!-- EnriquecimientoDeDatosContext&#45;&gt;AplicacionReglasNegocioPorPaisContext -->
<g id="edge21" class="edge">
<title>EnriquecimientoDeDatosContext&#45;&gt;AplicacionReglasNegocioPorPaisContext</title>
<path fill="none" stroke="black" stroke-width="2" d="M1766.62,-585.33C1735.17,-566.42 1699.01,-544.68 1668.71,-526.47"/>
<text text-anchor="middle" x="1763.74" y="-556.26" font-family="sans-serif" font-size="12.00">Partnership</text>
</g>
<!-- EnriquecimientoDeDatosContext&#45;&gt;ConsolidacionYOrganizacionPorPaisContext -->
<g id="edge20" class="edge">
<title>EnriquecimientoDeDatosContext&#45;&gt;ConsolidacionYOrganizacionPorPaisContext</title>
<path fill="none" stroke="black" stroke-width="2" d="M1979.67,-597.83C2071.63,-575.77 2192.77,-546.71 2287.87,-523.9"/>
<text text-anchor="middle" x="2193.74" y="-556.26" font-family="sans-serif" font-size="12.00">Partnership</text>
</g>
<!-- ValidacionInformacionConsolidadaGeolocalizadaContext -->
<g id="node17" class="node">
<title>ValidacionInformacionConsolidadaGeolocalizadaContext</title>
<polygon fill="none" stroke="black" stroke-width="2" points="1376.01,-629.98 1377.3,-632.85 1377.61,-635.72 1376.93,-638.56 1375.26,-641.37 1372.61,-644.13 1368.97,-646.83 1364.35,-649.46 1358.76,-652.02 1352.22,-654.49 1344.74,-656.86 1336.34,-659.13 1327.03,-661.28 1316.86,-663.32 1305.83,-665.23 1293.99,-667.02 1281.36,-668.66 1267.99,-670.18 1253.9,-671.55 1239.15,-672.78 1223.76,-673.86 1207.8,-674.8 1191.29,-675.59 1174.3,-676.24 1156.88,-676.75 1139.06,-677.12 1120.92,-677.35 1102.49,-677.44 1083.85,-677.4 1065.03,-677.24 1046.1,-676.95 1027.11,-676.55 1008.13,-676.03 989.2,-675.41 970.39,-674.68 951.74,-673.86 933.32,-672.94 915.17,-671.94 897.35,-670.86 879.91,-669.71 862.91,-668.48 846.38,-667.19 830.38,-665.84 814.95,-664.43 800.13,-662.97 785.97,-661.46 772.5,-659.91 759.76,-658.32 747.78,-656.69 736.6,-655.03 726.23,-653.34 716.72,-651.61 708.07,-649.86 700.32,-648.08 693.47,-646.28 687.54,-644.46 682.56,-642.62 678.51,-640.75 675.42,-638.87 673.28,-636.97 672.11,-635.05 671.88,-633.12 672.61,-631.18 674.28,-629.22 676.9,-627.25 680.43,-625.28 684.88,-623.3 690.23,-621.31 696.46,-619.33 703.54,-617.34 711.47,-615.37 720.21,-613.4 729.74,-611.44 740.03,-609.51 751.05,-607.59 762.78,-605.71 775.18,-603.86 788.22,-602.05 801.86,-600.28 816.07,-598.57 830.81,-596.92 846.05,-595.33 861.74,-593.81 877.85,-592.38 894.34,-591.03 911.15,-589.78 928.26,-588.63 945.62,-587.59 963.19,-586.66 980.92,-585.85 998.76,-585.18 1016.68,-584.63 1034.63,-584.23 1052.56,-583.97 1070.43,-583.86 1088.2,-583.89 1105.81,-584.09 1123.23,-584.44 1140.41,-584.95 1157.3,-585.63 1173.86,-586.46 1190.05,-587.45 1205.83,-588.6 1221.14,-589.91 1235.96,-591.37 1250.24,-592.97 1263.93,-594.73 1277.01,-596.62 1289.43,-598.64 1301.16,-600.79 1312.17,-603.05 1322.41,-605.42 1331.87,-607.89 1340.5,-610.45 1348.29,-613.09 1355.21,-615.8 1361.24,-618.57 1366.35,-621.38 1370.52,-624.23 1373.75,-627.1 1376.01,-629.98"/>
<text text-anchor="middle" x="1023.24" y="-627.99" font-family="sans-serif" font-size="16.00">ValidacionInformacionConsolidadaGeolocalizadaContext</text>
</g>
<!-- ValidacionInformacionConsolidadaGeolocalizadaContext&#45;&gt;AplicacionReglasNegocioAuditoriaContext -->
<g id="edge23" class="edge">
<title>ValidacionInformacionConsolidadaGeolocalizadaContext&#45;&gt;AplicacionReglasNegocioAuditoriaContext</title>
<path fill="none" stroke="black" stroke-width="2" d="M927.93,-588.65C885.51,-569.9 835.67,-547.86 793.28,-529.12"/>
<text text-anchor="middle" x="905.74" y="-556.26" font-family="sans-serif" font-size="12.00">Partnership</text>
</g>
<!-- ValidacionInformacionConsolidadaGeolocalizadaContext&#45;&gt;AplicacionReglasNegocioPorPaisContext -->
<g id="edge24" class="edge">
<title>ValidacionInformacionConsolidadaGeolocalizadaContext&#45;&gt;AplicacionReglasNegocioPorPaisContext</title>
<path fill="none" stroke="black" stroke-width="2" d="M1196.48,-587.88C1275.25,-568.36 1367.83,-545.43 1444.75,-526.37"/>
<text text-anchor="middle" x="1365.74" y="-556.26" font-family="sans-serif" font-size="12.00">Partnership</text>
</g>
<!-- ValidacionInformacionConsolidadaGeolocalizadaContext&#45;&gt;RecoleccionInformacionManualContext -->
<g id="edge22" class="edge">
<title>ValidacionInformacionConsolidadaGeolocalizadaContext&#45;&gt;RecoleccionInformacionManualContext</title>
<path fill="none" stroke="black" stroke-width="2" d="M1023.24,-584.2C1023.24,-556.08 1023.24,-519.54 1023.24,-487.11 1023.24,-487.11 1023.24,-487.11 1023.24,-192.93 1023.24,-170.43 1024.17,-159.4 1042.24,-146 1165.56,-54.57 1233.11,-125.78 1386.24,-115 1543.83,-103.91 1583.63,-107.7 1741.24,-97 1854.49,-89.31 1980.5,-78.75 2084.08,-69.55"/>
<text text-anchor="middle" x="1057.74" y="-336.51" font-family="sans-serif" font-size="12.00">Partnership</text>
</g>
</g>
</svg>
